<mxfile host="app.diagrams.net" agent="Mozilla/5.0 (Windows NT 10.0; Win64; x64) AppleWebKit/537.36 (KHTML, like Gecko) Chrome/139.0.0.0 Safari/537.36" version="28.1.1">
  <diagram name="Page-1" id="T4Tg0h1EzCO2DDjTpluN">
    <mxGraphModel dx="4228" dy="1953" grid="1" gridSize="10" guides="1" tooltips="1" connect="1" arrows="1" fold="1" page="1" pageScale="1" pageWidth="850" pageHeight="1100" math="0" shadow="0">
      <root>
        <mxCell id="0" />
        <mxCell id="1" parent="0" />
        <mxCell id="zORfP8hQOZwvnDJM3XV8-1" value="&lt;div&gt;&lt;font face=&quot;Lucida Console&quot; style=&quot;font-size: 20px;&quot;&gt;Appointment&lt;/font&gt;&lt;/div&gt;&lt;div&gt;&lt;font face=&quot;Lucida Console&quot;&gt;&lt;br&gt;&lt;/font&gt;&lt;/div&gt;" style="whiteSpace=wrap;html=1;align=center;labelBackgroundColor=none;" parent="1" vertex="1">
          <mxGeometry x="480" y="197.5" width="135" height="70" as="geometry" />
        </mxCell>
        <mxCell id="zORfP8hQOZwvnDJM3XV8-2" value="&lt;u&gt;&lt;font face=&quot;Lucida Console&quot;&gt;appointment_id&lt;/font&gt;&lt;/u&gt;" style="ellipse;whiteSpace=wrap;html=1;align=center;labelBackgroundColor=none;" parent="1" vertex="1">
          <mxGeometry x="320" y="132.5" width="110" height="35" as="geometry" />
        </mxCell>
        <mxCell id="zORfP8hQOZwvnDJM3XV8-3" value="&lt;u&gt;&lt;font face=&quot;Lucida Console&quot;&gt;patient_id&lt;/font&gt;&lt;/u&gt;" style="ellipse;whiteSpace=wrap;html=1;align=center;labelBackgroundColor=none;" parent="1" vertex="1">
          <mxGeometry x="445" y="100" width="100" height="35" as="geometry" />
        </mxCell>
        <mxCell id="zORfP8hQOZwvnDJM3XV8-4" value="&lt;font face=&quot;Lucida Console&quot;&gt;&lt;u&gt;staff_id&lt;/u&gt;&lt;/font&gt;" style="ellipse;whiteSpace=wrap;html=1;align=center;labelBackgroundColor=none;" parent="1" vertex="1">
          <mxGeometry x="330" y="215" width="100" height="35" as="geometry" />
        </mxCell>
        <mxCell id="zORfP8hQOZwvnDJM3XV8-6" value="" style="line;strokeWidth=1;rotatable=0;dashed=0;labelPosition=right;align=left;verticalAlign=middle;spacingTop=0;spacingLeft=6;points=[];portConstraint=eastwest;direction=south;labelBackgroundColor=none;" parent="1" vertex="1">
          <mxGeometry x="495" y="137.5" width="10" height="60" as="geometry" />
        </mxCell>
        <mxCell id="zORfP8hQOZwvnDJM3XV8-7" value="" style="line;strokeWidth=1;rotatable=0;dashed=0;labelPosition=right;align=left;verticalAlign=middle;spacingTop=0;spacingLeft=6;points=[];portConstraint=eastwest;labelBackgroundColor=none;" parent="1" vertex="1">
          <mxGeometry x="430" y="227.5" width="50" height="10" as="geometry" />
        </mxCell>
        <mxCell id="zORfP8hQOZwvnDJM3XV8-8" value="&lt;font face=&quot;Lucida Console&quot;&gt;appointment_date&lt;/font&gt;" style="ellipse;whiteSpace=wrap;html=1;align=center;labelBackgroundColor=none;" parent="1" vertex="1">
          <mxGeometry x="385" y="315" width="120" height="35" as="geometry" />
        </mxCell>
        <mxCell id="zORfP8hQOZwvnDJM3XV8-9" value="&lt;font face=&quot;Lucida Console&quot;&gt;appointment_time&lt;/font&gt;" style="ellipse;whiteSpace=wrap;html=1;align=center;labelBackgroundColor=none;" parent="1" vertex="1">
          <mxGeometry x="545" y="315" width="120" height="35" as="geometry" />
        </mxCell>
        <mxCell id="zORfP8hQOZwvnDJM3XV8-10" value="&lt;font face=&quot;Lucida Console&quot;&gt;status&lt;/font&gt;" style="ellipse;whiteSpace=wrap;html=1;align=center;labelBackgroundColor=none;" parent="1" vertex="1">
          <mxGeometry x="580" y="130" width="100" height="40" as="geometry" />
        </mxCell>
        <mxCell id="zORfP8hQOZwvnDJM3XV8-11" value="&lt;font style=&quot;font-size: 20px;&quot; face=&quot;Lucida Console&quot;&gt;Hospital_bill&lt;/font&gt;" style="whiteSpace=wrap;html=1;align=center;" parent="1" vertex="1">
          <mxGeometry x="-380" y="110" width="160" height="40" as="geometry" />
        </mxCell>
        <mxCell id="zORfP8hQOZwvnDJM3XV8-12" value="&lt;font face=&quot;Lucida Console&quot;&gt;bill id&lt;/font&gt;" style="ellipse;whiteSpace=wrap;html=1;align=center;fontStyle=4;" parent="1" vertex="1">
          <mxGeometry x="-520" y="107.5" width="100" height="35" as="geometry" />
        </mxCell>
        <mxCell id="zORfP8hQOZwvnDJM3XV8-13" value="&lt;u&gt;&lt;font face=&quot;Lucida Console&quot;&gt;patient_id&lt;/font&gt;&lt;/u&gt;" style="ellipse;whiteSpace=wrap;html=1;align=center;" parent="1" vertex="1">
          <mxGeometry x="-520" y="165" width="100" height="35" as="geometry" />
        </mxCell>
        <mxCell id="zORfP8hQOZwvnDJM3XV8-14" value="&lt;font face=&quot;Lucida Console&quot;&gt;amount&lt;/font&gt;" style="ellipse;whiteSpace=wrap;html=1;align=center;" parent="1" vertex="1">
          <mxGeometry x="-160" y="112.5" width="100" height="35" as="geometry" />
        </mxCell>
        <mxCell id="zORfP8hQOZwvnDJM3XV8-15" value="payment status" style="ellipse;whiteSpace=wrap;html=1;align=center;" parent="1" vertex="1">
          <mxGeometry x="-295" y="197.5" width="100" height="35" as="geometry" />
        </mxCell>
        <mxCell id="zORfP8hQOZwvnDJM3XV8-16" value="&lt;font face=&quot;Lucida Console&quot;&gt;bill_date&lt;/font&gt;" style="ellipse;whiteSpace=wrap;html=1;align=center;" parent="1" vertex="1">
          <mxGeometry x="-360" y="12.5" width="100" height="35" as="geometry" />
        </mxCell>
        <mxCell id="zORfP8hQOZwvnDJM3XV8-17" value="" style="line;strokeWidth=1;rotatable=0;dashed=0;labelPosition=right;align=left;verticalAlign=middle;spacingTop=0;spacingLeft=6;points=[];portConstraint=eastwest;" parent="1" vertex="1">
          <mxGeometry x="-220" y="125" width="60" height="10" as="geometry" />
        </mxCell>
        <mxCell id="zORfP8hQOZwvnDJM3XV8-18" value="" style="line;strokeWidth=1;rotatable=0;dashed=0;labelPosition=right;align=left;verticalAlign=middle;spacingTop=0;spacingLeft=6;points=[];portConstraint=eastwest;" parent="1" vertex="1">
          <mxGeometry x="-420" y="120" width="40" height="10" as="geometry" />
        </mxCell>
        <mxCell id="zORfP8hQOZwvnDJM3XV8-19" value="" style="line;strokeWidth=1;rotatable=0;dashed=0;labelPosition=right;align=left;verticalAlign=middle;spacingTop=0;spacingLeft=6;points=[];portConstraint=eastwest;direction=south;" parent="1" vertex="1">
          <mxGeometry x="-315" y="47.5" width="10" height="60" as="geometry" />
        </mxCell>
        <mxCell id="zORfP8hQOZwvnDJM3XV8-21" value="" style="endArrow=none;html=1;rounded=0;" parent="1" edge="1">
          <mxGeometry width="50" height="50" relative="1" as="geometry">
            <mxPoint x="-245" y="197.5" as="sourcePoint" />
            <mxPoint x="-295" y="147.5" as="targetPoint" />
          </mxGeometry>
        </mxCell>
        <mxCell id="zORfP8hQOZwvnDJM3XV8-22" value="" style="endArrow=none;html=1;rounded=0;" parent="1" edge="1">
          <mxGeometry width="50" height="50" relative="1" as="geometry">
            <mxPoint x="470" y="317.5" as="sourcePoint" />
            <mxPoint x="520" y="267.5" as="targetPoint" />
          </mxGeometry>
        </mxCell>
        <mxCell id="zORfP8hQOZwvnDJM3XV8-24" value="" style="endArrow=none;html=1;rounded=0;" parent="1" edge="1">
          <mxGeometry width="50" height="50" relative="1" as="geometry">
            <mxPoint x="590" y="197.5" as="sourcePoint" />
            <mxPoint x="630" y="165" as="targetPoint" />
          </mxGeometry>
        </mxCell>
        <mxCell id="zORfP8hQOZwvnDJM3XV8-25" value="&lt;font face=&quot;Lucida Console&quot; style=&quot;font-size: 20px;&quot;&gt;Medicine&lt;/font&gt;" style="whiteSpace=wrap;html=1;align=center;" parent="1" vertex="1">
          <mxGeometry x="-1330.5" y="932.5" width="120" height="70" as="geometry" />
        </mxCell>
        <mxCell id="zORfP8hQOZwvnDJM3XV8-26" value="&lt;font face=&quot;Lucida Console&quot;&gt;medicine_id&lt;/font&gt;" style="ellipse;whiteSpace=wrap;html=1;align=center;fontStyle=4;" parent="1" vertex="1">
          <mxGeometry x="-1110.5" y="962.5" width="100" height="40" as="geometry" />
        </mxCell>
        <mxCell id="zORfP8hQOZwvnDJM3XV8-27" value="" style="endArrow=none;html=1;rounded=0;exitX=1;exitY=1;exitDx=0;exitDy=0;entryX=0;entryY=0.286;entryDx=0;entryDy=0;entryPerimeter=0;" parent="1" source="zORfP8hQOZwvnDJM3XV8-25" target="zORfP8hQOZwvnDJM3XV8-28" edge="1">
          <mxGeometry relative="1" as="geometry">
            <mxPoint x="-1180.5" y="1062.5" as="sourcePoint" />
            <mxPoint x="-1110.5" y="902.5" as="targetPoint" />
          </mxGeometry>
        </mxCell>
        <mxCell id="zORfP8hQOZwvnDJM3XV8-28" value="&lt;div&gt;&lt;font face=&quot;Lucida Console&quot;&gt;name&lt;/font&gt;&lt;/div&gt;" style="ellipse;whiteSpace=wrap;html=1;align=center;" parent="1" vertex="1">
          <mxGeometry x="-1100.5" y="1017.5" width="100" height="35" as="geometry" />
        </mxCell>
        <mxCell id="zORfP8hQOZwvnDJM3XV8-29" value="" style="endArrow=none;html=1;rounded=0;exitX=0.833;exitY=1;exitDx=0;exitDy=0;exitPerimeter=0;" parent="1" source="zORfP8hQOZwvnDJM3XV8-25" target="zORfP8hQOZwvnDJM3XV8-30" edge="1">
          <mxGeometry relative="1" as="geometry">
            <mxPoint x="-1214.5" y="866.5" as="sourcePoint" />
            <mxPoint x="-1130.5" y="952.5" as="targetPoint" />
          </mxGeometry>
        </mxCell>
        <mxCell id="zORfP8hQOZwvnDJM3XV8-30" value="&lt;font face=&quot;Lucida Console&quot;&gt;quantity&lt;/font&gt;" style="ellipse;whiteSpace=wrap;html=1;align=center;" parent="1" vertex="1">
          <mxGeometry x="-1180.5" y="1052.5" width="100" height="40" as="geometry" />
        </mxCell>
        <mxCell id="zORfP8hQOZwvnDJM3XV8-31" value="" style="endArrow=none;html=1;rounded=0;entryX=0;entryY=0.5;entryDx=0;entryDy=0;exitX=1;exitY=0.357;exitDx=0;exitDy=0;exitPerimeter=0;" parent="1" source="zORfP8hQOZwvnDJM3XV8-25" target="zORfP8hQOZwvnDJM3XV8-26" edge="1">
          <mxGeometry relative="1" as="geometry">
            <mxPoint x="-1220.5" y="957.5" as="sourcePoint" />
            <mxPoint x="-1010.5" y="1062.5" as="targetPoint" />
          </mxGeometry>
        </mxCell>
        <mxCell id="zORfP8hQOZwvnDJM3XV8-32" value="" style="endArrow=none;html=1;rounded=0;exitX=0.975;exitY=0.157;exitDx=0;exitDy=0;exitPerimeter=0;" parent="1" source="zORfP8hQOZwvnDJM3XV8-25" edge="1">
          <mxGeometry relative="1" as="geometry">
            <mxPoint x="-1230.5" y="1062.5" as="sourcePoint" />
            <mxPoint x="-1116.3555280004116" y="929.8041844308227" as="targetPoint" />
          </mxGeometry>
        </mxCell>
        <mxCell id="zORfP8hQOZwvnDJM3XV8-33" value="&lt;font face=&quot;Lucida Console&quot;&gt;price_per_unit&lt;/font&gt;" style="ellipse;whiteSpace=wrap;html=1;align=center;" parent="1" vertex="1">
          <mxGeometry x="-1120.5" y="902.5" width="120" height="40" as="geometry" />
        </mxCell>
        <mxCell id="zORfP8hQOZwvnDJM3XV8-34" value="" style="endArrow=none;html=1;rounded=0;exitX=0.7;exitY=1.029;exitDx=0;exitDy=0;exitPerimeter=0;" parent="1" source="zORfP8hQOZwvnDJM3XV8-25" target="zORfP8hQOZwvnDJM3XV8-35" edge="1">
          <mxGeometry relative="1" as="geometry">
            <mxPoint x="-1270.5" y="1062.5" as="sourcePoint" />
            <mxPoint x="-1180.5" y="1112.5" as="targetPoint" />
          </mxGeometry>
        </mxCell>
        <mxCell id="zORfP8hQOZwvnDJM3XV8-35" value="&lt;font face=&quot;Lucida Console&quot;&gt;expiry_date&lt;/font&gt;" style="ellipse;whiteSpace=wrap;html=1;align=center;" parent="1" vertex="1">
          <mxGeometry x="-1300" y="1092.5" width="100" height="40" as="geometry" />
        </mxCell>
        <mxCell id="zORfP8hQOZwvnDJM3XV8-36" value="&lt;font style=&quot;font-size: 20px;&quot; face=&quot;Lucida Console&quot;&gt;Pharmacy_Bill&lt;/font&gt;" style="whiteSpace=wrap;html=1;align=center;" parent="1" vertex="1">
          <mxGeometry x="-1240" y="577.5" width="215" height="70" as="geometry" />
        </mxCell>
        <mxCell id="zORfP8hQOZwvnDJM3XV8-37" value="&lt;font face=&quot;Lucida Console&quot;&gt;issue_id&lt;/font&gt;" style="ellipse;whiteSpace=wrap;html=1;align=center;fontStyle=4;" parent="1" vertex="1">
          <mxGeometry x="-1410" y="462.5" width="100" height="40" as="geometry" />
        </mxCell>
        <mxCell id="zORfP8hQOZwvnDJM3XV8-38" value="" style="endArrow=none;html=1;rounded=0;entryX=0;entryY=0;entryDx=0;entryDy=0;" parent="1" source="zORfP8hQOZwvnDJM3XV8-37" target="zORfP8hQOZwvnDJM3XV8-36" edge="1">
          <mxGeometry relative="1" as="geometry">
            <mxPoint x="-1320.4999999999995" y="594.0099999999998" as="sourcePoint" />
            <mxPoint x="-1227.5" y="620" as="targetPoint" />
          </mxGeometry>
        </mxCell>
        <mxCell id="zORfP8hQOZwvnDJM3XV8-39" value="medicine_id" style="ellipse;whiteSpace=wrap;html=1;align=center;" parent="1" vertex="1">
          <mxGeometry x="-1200" y="467.5" width="100" height="35" as="geometry" />
        </mxCell>
        <mxCell id="zORfP8hQOZwvnDJM3XV8-40" value="" style="endArrow=none;html=1;rounded=0;exitX=1;exitY=1;exitDx=0;exitDy=0;entryX=0;entryY=0.25;entryDx=0;entryDy=0;" parent="1" source="zORfP8hQOZwvnDJM3XV8-41" target="zORfP8hQOZwvnDJM3XV8-36" edge="1">
          <mxGeometry relative="1" as="geometry">
            <mxPoint x="-1346.0950000000003" y="632.2751371575108" as="sourcePoint" />
            <mxPoint x="-1279.9969469178418" y="579.9999999999998" as="targetPoint" />
          </mxGeometry>
        </mxCell>
        <mxCell id="zORfP8hQOZwvnDJM3XV8-41" value="&lt;font face=&quot;Lucida Console&quot;&gt;quantity&lt;/font&gt;_issued" style="ellipse;whiteSpace=wrap;html=1;align=center;" parent="1" vertex="1">
          <mxGeometry x="-1470" y="517.5" width="135" height="40" as="geometry" />
        </mxCell>
        <mxCell id="zORfP8hQOZwvnDJM3XV8-42" value="" style="endArrow=none;html=1;rounded=0;exitX=0.5;exitY=1;exitDx=0;exitDy=0;entryX=0.558;entryY=0.022;entryDx=0;entryDy=0;entryPerimeter=0;" parent="1" source="zORfP8hQOZwvnDJM3XV8-39" target="zORfP8hQOZwvnDJM3XV8-36" edge="1">
          <mxGeometry relative="1" as="geometry">
            <mxPoint x="-1170.5" y="522.5" as="sourcePoint" />
            <mxPoint x="-1120" y="572.5" as="targetPoint" />
          </mxGeometry>
        </mxCell>
        <mxCell id="zORfP8hQOZwvnDJM3XV8-43" value="" style="endArrow=none;html=1;rounded=0;exitX=0.5;exitY=1;exitDx=0;exitDy=0;entryX=0.852;entryY=0.007;entryDx=0;entryDy=0;entryPerimeter=0;" parent="1" source="zORfP8hQOZwvnDJM3XV8-44" target="zORfP8hQOZwvnDJM3XV8-36" edge="1">
          <mxGeometry relative="1" as="geometry">
            <mxPoint x="-1296.5250000000005" y="580.0017505763692" as="sourcePoint" />
            <mxPoint x="-1225.4483919092245" y="593.4200000000001" as="targetPoint" />
            <Array as="points" />
          </mxGeometry>
        </mxCell>
        <mxCell id="zORfP8hQOZwvnDJM3XV8-44" value="&lt;font face=&quot;Lucida Console&quot;&gt;patient_id&lt;/font&gt;" style="ellipse;whiteSpace=wrap;html=1;align=center;" parent="1" vertex="1">
          <mxGeometry x="-1110.5" y="412.5" width="120" height="40" as="geometry" />
        </mxCell>
        <mxCell id="zORfP8hQOZwvnDJM3XV8-45" value="" style="endArrow=none;html=1;rounded=0;exitX=0.7;exitY=1.029;exitDx=0;exitDy=0;exitPerimeter=0;" parent="1" edge="1">
          <mxGeometry relative="1" as="geometry">
            <mxPoint x="-1250" y="482.03" as="sourcePoint" />
            <mxPoint x="-1199.9018906356805" y="579.9967642075961" as="targetPoint" />
          </mxGeometry>
        </mxCell>
        <mxCell id="zORfP8hQOZwvnDJM3XV8-46" value="&lt;font face=&quot;Lucida Console&quot;&gt;issue_date&lt;/font&gt;" style="ellipse;whiteSpace=wrap;html=1;align=center;" parent="1" vertex="1">
          <mxGeometry x="-1310" y="452.5" width="100" height="40" as="geometry" />
        </mxCell>
        <mxCell id="zORfP8hQOZwvnDJM3XV8-47" value="&lt;font style=&quot;font-size: 20px;&quot; face=&quot;Lucida Console&quot;&gt;Lab_Test&lt;/font&gt;" style="whiteSpace=wrap;html=1;align=center;" parent="1" vertex="1">
          <mxGeometry x="920" y="1017.5" width="120" height="70" as="geometry" />
        </mxCell>
        <mxCell id="zORfP8hQOZwvnDJM3XV8-48" value="&lt;font face=&quot;Lucida Console&quot;&gt;test_id&lt;/font&gt;" style="ellipse;whiteSpace=wrap;html=1;align=center;fontStyle=4;" parent="1" vertex="1">
          <mxGeometry x="1140" y="1047.5" width="100" height="40" as="geometry" />
        </mxCell>
        <mxCell id="zORfP8hQOZwvnDJM3XV8-49" value="" style="endArrow=none;html=1;rounded=0;exitX=1;exitY=1;exitDx=0;exitDy=0;entryX=0;entryY=0.286;entryDx=0;entryDy=0;entryPerimeter=0;" parent="1" source="zORfP8hQOZwvnDJM3XV8-47" edge="1">
          <mxGeometry relative="1" as="geometry">
            <mxPoint x="1070" y="1147.5" as="sourcePoint" />
            <mxPoint x="1149.9999999999995" y="1112.51" as="targetPoint" />
          </mxGeometry>
        </mxCell>
        <mxCell id="zORfP8hQOZwvnDJM3XV8-50" value="cost" style="ellipse;whiteSpace=wrap;html=1;align=center;" parent="1" vertex="1">
          <mxGeometry x="1140" y="1102.5" width="100" height="35" as="geometry" />
        </mxCell>
        <mxCell id="zORfP8hQOZwvnDJM3XV8-51" value="" style="endArrow=none;html=1;rounded=0;entryX=0;entryY=0.5;entryDx=0;entryDy=0;exitX=1;exitY=0.357;exitDx=0;exitDy=0;exitPerimeter=0;" parent="1" source="zORfP8hQOZwvnDJM3XV8-47" target="zORfP8hQOZwvnDJM3XV8-48" edge="1">
          <mxGeometry relative="1" as="geometry">
            <mxPoint x="1030" y="1042.5" as="sourcePoint" />
            <mxPoint x="1240" y="1147.5" as="targetPoint" />
          </mxGeometry>
        </mxCell>
        <mxCell id="zORfP8hQOZwvnDJM3XV8-52" value="" style="endArrow=none;html=1;rounded=0;exitX=0.975;exitY=0.157;exitDx=0;exitDy=0;exitPerimeter=0;" parent="1" source="zORfP8hQOZwvnDJM3XV8-47" target="zORfP8hQOZwvnDJM3XV8-53" edge="1">
          <mxGeometry relative="1" as="geometry">
            <mxPoint x="1020" y="1147.5" as="sourcePoint" />
            <mxPoint x="1150" y="1007.5" as="targetPoint" />
          </mxGeometry>
        </mxCell>
        <mxCell id="zORfP8hQOZwvnDJM3XV8-53" value="&lt;font face=&quot;Lucida Console&quot;&gt;test_name&lt;/font&gt;" style="ellipse;whiteSpace=wrap;html=1;align=center;" parent="1" vertex="1">
          <mxGeometry x="1130" y="987.5" width="120" height="40" as="geometry" />
        </mxCell>
        <mxCell id="zORfP8hQOZwvnDJM3XV8-54" value="&lt;font style=&quot;font-size: 20px;&quot; face=&quot;Lucida Console&quot;&gt;Test-result&lt;/font&gt;" style="whiteSpace=wrap;html=1;align=center;" parent="1" vertex="1">
          <mxGeometry x="45" y="980" width="150" height="70" as="geometry" />
        </mxCell>
        <mxCell id="zORfP8hQOZwvnDJM3XV8-55" style="edgeStyle=orthogonalEdgeStyle;rounded=0;orthogonalLoop=1;jettySize=auto;html=1;exitX=0.5;exitY=1;exitDx=0;exitDy=0;" parent="1" source="zORfP8hQOZwvnDJM3XV8-54" target="zORfP8hQOZwvnDJM3XV8-54" edge="1">
          <mxGeometry relative="1" as="geometry" />
        </mxCell>
        <mxCell id="zORfP8hQOZwvnDJM3XV8-56" value="&lt;font style=&quot;font-size: 12px;&quot; face=&quot;Lucida Console&quot;&gt;patient_id&lt;/font&gt;" style="ellipse;whiteSpace=wrap;html=1;align=center;fontStyle=4;" parent="1" vertex="1">
          <mxGeometry x="75" y="1310" width="80" height="35" as="geometry" />
        </mxCell>
        <mxCell id="zORfP8hQOZwvnDJM3XV8-57" value="" style="endArrow=none;html=1;rounded=0;entryX=0.5;entryY=1;entryDx=0;entryDy=0;" parent="1" target="zORfP8hQOZwvnDJM3XV8-54" edge="1">
          <mxGeometry relative="1" as="geometry">
            <mxPoint x="115" y="1310" as="sourcePoint" />
            <mxPoint x="125" y="1070" as="targetPoint" />
          </mxGeometry>
        </mxCell>
        <mxCell id="zORfP8hQOZwvnDJM3XV8-58" value="" style="endArrow=none;html=1;rounded=0;entryX=0.75;entryY=1;entryDx=0;entryDy=0;" parent="1" target="zORfP8hQOZwvnDJM3XV8-54" edge="1">
          <mxGeometry relative="1" as="geometry">
            <mxPoint x="205" y="1310" as="sourcePoint" />
            <mxPoint x="215" y="1150" as="targetPoint" />
            <Array as="points">
              <mxPoint x="195" y="1310" />
            </Array>
          </mxGeometry>
        </mxCell>
        <mxCell id="zORfP8hQOZwvnDJM3XV8-59" value="&lt;font face=&quot;Lucida Console&quot;&gt;result&lt;/font&gt;" style="ellipse;whiteSpace=wrap;html=1;align=center;" parent="1" vertex="1">
          <mxGeometry x="165" y="1310" width="90" height="35" as="geometry" />
        </mxCell>
        <mxCell id="zORfP8hQOZwvnDJM3XV8-60" value="&lt;font face=&quot;Lucida Console&quot;&gt;test_id&lt;/font&gt;" style="ellipse;whiteSpace=wrap;html=1;align=center;fontStyle=4;" parent="1" vertex="1">
          <mxGeometry x="265" y="1317.5" width="100" height="35" as="geometry" />
        </mxCell>
        <mxCell id="zORfP8hQOZwvnDJM3XV8-61" value="" style="endArrow=none;html=1;rounded=0;entryX=0.906;entryY=0.986;entryDx=0;entryDy=0;entryPerimeter=0;exitX=0.42;exitY=-0.075;exitDx=0;exitDy=0;exitPerimeter=0;" parent="1" source="zORfP8hQOZwvnDJM3XV8-60" target="zORfP8hQOZwvnDJM3XV8-54" edge="1">
          <mxGeometry relative="1" as="geometry">
            <mxPoint x="175" y="1290" as="sourcePoint" />
            <mxPoint x="335" y="1290" as="targetPoint" />
          </mxGeometry>
        </mxCell>
        <mxCell id="zORfP8hQOZwvnDJM3XV8-62" value="" style="endArrow=none;html=1;rounded=0;entryX=0.25;entryY=1;entryDx=0;entryDy=0;" parent="1" target="zORfP8hQOZwvnDJM3XV8-54" edge="1">
          <mxGeometry relative="1" as="geometry">
            <mxPoint x="5" y="1310" as="sourcePoint" />
            <mxPoint x="215" y="1320" as="targetPoint" />
            <Array as="points" />
          </mxGeometry>
        </mxCell>
        <mxCell id="zORfP8hQOZwvnDJM3XV8-63" value="" style="resizable=0;html=1;whiteSpace=wrap;align=right;verticalAlign=bottom;" parent="zORfP8hQOZwvnDJM3XV8-62" connectable="0" vertex="1">
          <mxGeometry x="1" relative="1" as="geometry" />
        </mxCell>
        <mxCell id="zORfP8hQOZwvnDJM3XV8-64" style="edgeStyle=orthogonalEdgeStyle;rounded=0;orthogonalLoop=1;jettySize=auto;html=1;" parent="1" edge="1">
          <mxGeometry relative="1" as="geometry">
            <mxPoint x="15" y="1310" as="targetPoint" />
            <mxPoint x="5" y="1317.5" as="sourcePoint" />
          </mxGeometry>
        </mxCell>
        <mxCell id="zORfP8hQOZwvnDJM3XV8-65" value="&lt;font face=&quot;Lucida Console&quot;&gt;test_date&lt;/font&gt;" style="ellipse;whiteSpace=wrap;html=1;align=center;" parent="1" vertex="1">
          <mxGeometry x="-45" y="1310" width="100" height="35" as="geometry" />
        </mxCell>
        <mxCell id="zORfP8hQOZwvnDJM3XV8-66" value="&lt;font face=&quot;Lucida Console&quot;&gt;&lt;span style=&quot;font-size: 20px;&quot;&gt;Staff&lt;/span&gt;&lt;/font&gt;" style="whiteSpace=wrap;html=1;align=center;" parent="1" vertex="1">
          <mxGeometry x="345" y="675" width="150" height="70" as="geometry" />
        </mxCell>
        <mxCell id="zORfP8hQOZwvnDJM3XV8-67" style="edgeStyle=orthogonalEdgeStyle;rounded=0;orthogonalLoop=1;jettySize=auto;html=1;exitX=0.5;exitY=1;exitDx=0;exitDy=0;" parent="1" source="zORfP8hQOZwvnDJM3XV8-66" target="zORfP8hQOZwvnDJM3XV8-66" edge="1">
          <mxGeometry relative="1" as="geometry" />
        </mxCell>
        <mxCell id="zORfP8hQOZwvnDJM3XV8-68" value="&lt;font face=&quot;Lucida Console&quot;&gt;staff_id&lt;/font&gt;" style="ellipse;whiteSpace=wrap;html=1;align=center;fontStyle=4;" parent="1" vertex="1">
          <mxGeometry x="170" y="577.5" width="100" height="35" as="geometry" />
        </mxCell>
        <mxCell id="zORfP8hQOZwvnDJM3XV8-69" value="&lt;font face=&quot;Lucida Console&quot;&gt;role&lt;/font&gt;" style="ellipse;whiteSpace=wrap;html=1;align=center;" parent="1" vertex="1">
          <mxGeometry x="340" y="845" width="100" height="35" as="geometry" />
        </mxCell>
        <mxCell id="zORfP8hQOZwvnDJM3XV8-70" value="&lt;font face=&quot;Lucida Console&quot;&gt;name&lt;/font&gt;" style="ellipse;whiteSpace=wrap;html=1;align=center;" parent="1" vertex="1">
          <mxGeometry x="120" y="790" width="100" height="35" as="geometry" />
        </mxCell>
        <mxCell id="zORfP8hQOZwvnDJM3XV8-71" value="&lt;font face=&quot;Lucida Console&quot;&gt;contact&lt;/font&gt;" style="ellipse;whiteSpace=wrap;html=1;align=center;" parent="1" vertex="1">
          <mxGeometry x="230" y="825" width="100" height="35" as="geometry" />
        </mxCell>
        <mxCell id="zORfP8hQOZwvnDJM3XV8-72" value="" style="endArrow=none;html=1;rounded=0;exitX=0.6;exitY=-0.029;exitDx=0;exitDy=0;exitPerimeter=0;entryX=0;entryY=1;entryDx=0;entryDy=0;" parent="1" source="zORfP8hQOZwvnDJM3XV8-71" target="zORfP8hQOZwvnDJM3XV8-66" edge="1">
          <mxGeometry relative="1" as="geometry">
            <mxPoint x="160" y="985" as="sourcePoint" />
            <mxPoint x="350" y="750" as="targetPoint" />
          </mxGeometry>
        </mxCell>
        <mxCell id="zORfP8hQOZwvnDJM3XV8-73" value="" style="endArrow=none;html=1;rounded=0;entryX=0.429;entryY=1.016;entryDx=0;entryDy=0;entryPerimeter=0;exitX=0.4;exitY=0;exitDx=0;exitDy=0;exitPerimeter=0;" parent="1" source="zORfP8hQOZwvnDJM3XV8-69" target="zORfP8hQOZwvnDJM3XV8-66" edge="1">
          <mxGeometry relative="1" as="geometry">
            <mxPoint x="450" y="825" as="sourcePoint" />
            <mxPoint x="320" y="985" as="targetPoint" />
          </mxGeometry>
        </mxCell>
        <mxCell id="zORfP8hQOZwvnDJM3XV8-74" value="" style="endArrow=none;html=1;rounded=0;entryX=0;entryY=0;entryDx=0;entryDy=0;" parent="1" source="zORfP8hQOZwvnDJM3XV8-68" target="zORfP8hQOZwvnDJM3XV8-66" edge="1">
          <mxGeometry relative="1" as="geometry">
            <mxPoint x="160" y="985" as="sourcePoint" />
            <mxPoint x="340" y="680" as="targetPoint" />
          </mxGeometry>
        </mxCell>
        <mxCell id="zORfP8hQOZwvnDJM3XV8-75" value="&lt;font face=&quot;Lucida Console&quot;&gt;&lt;span style=&quot;font-size: 20px;&quot;&gt;User&lt;/span&gt;&lt;/font&gt;" style="whiteSpace=wrap;html=1;align=center;" parent="1" vertex="1">
          <mxGeometry x="890" y="430" width="190" height="70" as="geometry" />
        </mxCell>
        <mxCell id="zORfP8hQOZwvnDJM3XV8-76" style="edgeStyle=orthogonalEdgeStyle;rounded=0;orthogonalLoop=1;jettySize=auto;html=1;exitX=0.5;exitY=1;exitDx=0;exitDy=0;" parent="1" source="zORfP8hQOZwvnDJM3XV8-75" target="zORfP8hQOZwvnDJM3XV8-75" edge="1">
          <mxGeometry relative="1" as="geometry" />
        </mxCell>
        <mxCell id="zORfP8hQOZwvnDJM3XV8-77" value="&lt;font face=&quot;Lucida Console&quot;&gt;user_id&lt;/font&gt;" style="ellipse;whiteSpace=wrap;html=1;align=center;fontStyle=4;" parent="1" vertex="1">
          <mxGeometry x="1060" y="580" width="100" height="35" as="geometry" />
        </mxCell>
        <mxCell id="zORfP8hQOZwvnDJM3XV8-78" value="&lt;font face=&quot;Lucida Console&quot;&gt;username&lt;/font&gt;" style="ellipse;whiteSpace=wrap;html=1;align=center;" parent="1" vertex="1">
          <mxGeometry x="950" y="580" width="100" height="35" as="geometry" />
        </mxCell>
        <mxCell id="zORfP8hQOZwvnDJM3XV8-79" value="&lt;font face=&quot;Lucida Console&quot;&gt;role&lt;/font&gt;" style="ellipse;whiteSpace=wrap;html=1;align=center;" parent="1" vertex="1">
          <mxGeometry x="730" y="580" width="100" height="35" as="geometry" />
        </mxCell>
        <mxCell id="zORfP8hQOZwvnDJM3XV8-80" value="&lt;font face=&quot;Lucida Console&quot;&gt;password&lt;/font&gt;" style="ellipse;whiteSpace=wrap;html=1;align=center;" parent="1" vertex="1">
          <mxGeometry x="840" y="580" width="100" height="35" as="geometry" />
        </mxCell>
        <mxCell id="zORfP8hQOZwvnDJM3XV8-81" value="" style="endArrow=none;html=1;rounded=0;exitX=0.6;exitY=-0.029;exitDx=0;exitDy=0;exitPerimeter=0;entryX=0.34;entryY=1.05;entryDx=0;entryDy=0;entryPerimeter=0;" parent="1" source="zORfP8hQOZwvnDJM3XV8-80" target="zORfP8hQOZwvnDJM3XV8-75" edge="1">
          <mxGeometry relative="1" as="geometry">
            <mxPoint x="690" y="730" as="sourcePoint" />
            <mxPoint x="920" y="490" as="targetPoint" />
          </mxGeometry>
        </mxCell>
        <mxCell id="zORfP8hQOZwvnDJM3XV8-82" value="" style="endArrow=none;html=1;rounded=0;entryX=0.673;entryY=1.075;entryDx=0;entryDy=0;entryPerimeter=0;exitX=0.4;exitY=0;exitDx=0;exitDy=0;exitPerimeter=0;" parent="1" source="zORfP8hQOZwvnDJM3XV8-78" target="zORfP8hQOZwvnDJM3XV8-75" edge="1">
          <mxGeometry relative="1" as="geometry">
            <mxPoint x="980" y="570" as="sourcePoint" />
            <mxPoint x="850" y="730" as="targetPoint" />
          </mxGeometry>
        </mxCell>
        <mxCell id="zORfP8hQOZwvnDJM3XV8-83" value="" style="endArrow=none;html=1;rounded=0;entryX=0.88;entryY=1.05;entryDx=0;entryDy=0;entryPerimeter=0;" parent="1" source="zORfP8hQOZwvnDJM3XV8-77" target="zORfP8hQOZwvnDJM3XV8-75" edge="1">
          <mxGeometry relative="1" as="geometry">
            <mxPoint x="690" y="730" as="sourcePoint" />
            <mxPoint x="1070" y="540" as="targetPoint" />
          </mxGeometry>
        </mxCell>
        <mxCell id="zORfP8hQOZwvnDJM3XV8-84" value="" style="endArrow=none;html=1;rounded=0;exitX=0.6;exitY=0;exitDx=0;exitDy=0;exitPerimeter=0;entryX=0.158;entryY=1.025;entryDx=0;entryDy=0;entryPerimeter=0;" parent="1" source="zORfP8hQOZwvnDJM3XV8-79" target="zORfP8hQOZwvnDJM3XV8-75" edge="1">
          <mxGeometry relative="1" as="geometry">
            <mxPoint x="880" y="480" as="sourcePoint" />
            <mxPoint x="900" y="472" as="targetPoint" />
          </mxGeometry>
        </mxCell>
        <mxCell id="zORfP8hQOZwvnDJM3XV8-85" value="&lt;font face=&quot;Lucida Console&quot;&gt;staff_id&lt;/font&gt;" style="ellipse;whiteSpace=wrap;html=1;align=center;fontStyle=4;" parent="1" vertex="1">
          <mxGeometry x="1220" y="580" width="110" height="35" as="geometry" />
        </mxCell>
        <mxCell id="zORfP8hQOZwvnDJM3XV8-86" value="" style="endArrow=none;html=1;rounded=0;entryX=0.958;entryY=1;entryDx=0;entryDy=0;entryPerimeter=0;" parent="1" target="zORfP8hQOZwvnDJM3XV8-75" edge="1">
          <mxGeometry relative="1" as="geometry">
            <mxPoint x="1260" y="580" as="sourcePoint" />
            <mxPoint x="1100" y="510" as="targetPoint" />
          </mxGeometry>
        </mxCell>
        <mxCell id="zORfP8hQOZwvnDJM3XV8-87" value="" style="line;strokeWidth=1;rotatable=0;dashed=0;labelPosition=right;align=left;verticalAlign=middle;spacingTop=0;spacingLeft=6;points=[];portConstraint=eastwest;direction=south;" parent="1" vertex="1">
          <mxGeometry x="1002.5" y="1087.5" width="5" height="60" as="geometry" />
        </mxCell>
        <mxCell id="zORfP8hQOZwvnDJM3XV8-88" value="&lt;u&gt;&lt;font face=&quot;Lucida Console&quot;&gt;bill_id&lt;/font&gt;&lt;/u&gt;" style="ellipse;whiteSpace=wrap;html=1;align=center;" parent="1" vertex="1">
          <mxGeometry x="955" y="1147.5" width="100" height="35" as="geometry" />
        </mxCell>
        <mxCell id="zORfP8hQOZwvnDJM3XV8-89" value="" style="endArrow=none;html=1;rounded=0;" parent="1" edge="1">
          <mxGeometry relative="1" as="geometry">
            <mxPoint x="210" y="709" as="sourcePoint" />
            <mxPoint x="345" y="709.4100000000001" as="targetPoint" />
          </mxGeometry>
        </mxCell>
        <mxCell id="zORfP8hQOZwvnDJM3XV8-90" value="&lt;font face=&quot;Lucida Console&quot;&gt;schedule&lt;/font&gt;" style="ellipse;whiteSpace=wrap;html=1;align=center;" parent="1" vertex="1">
          <mxGeometry x="110" y="692.5" width="100" height="35" as="geometry" />
        </mxCell>
        <mxCell id="zORfP8hQOZwvnDJM3XV8-91" value="" style="endArrow=none;html=1;rounded=0;entryX=0.25;entryY=1;entryDx=0;entryDy=0;exitX=0.5;exitY=0;exitDx=0;exitDy=0;" parent="1" source="zORfP8hQOZwvnDJM3XV8-154" target="zORfP8hQOZwvnDJM3XV8-11" edge="1">
          <mxGeometry relative="1" as="geometry">
            <mxPoint x="-290" y="390" as="sourcePoint" />
            <mxPoint x="-350" y="215" as="targetPoint" />
          </mxGeometry>
        </mxCell>
        <mxCell id="zORfP8hQOZwvnDJM3XV8-92" value="N" style="text;html=1;align=center;verticalAlign=middle;whiteSpace=wrap;rounded=0;" parent="1" vertex="1">
          <mxGeometry x="-385" y="280" width="60" height="30" as="geometry" />
        </mxCell>
        <mxCell id="zORfP8hQOZwvnDJM3XV8-93" value="&lt;font face=&quot;Lucida Console&quot;&gt;BOOKS&lt;/font&gt;" style="shape=rhombus;perimeter=rhombusPerimeter;whiteSpace=wrap;html=1;align=center;" parent="1" vertex="1">
          <mxGeometry x="220" y="325" width="120" height="60" as="geometry" />
        </mxCell>
        <mxCell id="zORfP8hQOZwvnDJM3XV8-94" value="1" style="text;html=1;align=center;verticalAlign=middle;whiteSpace=wrap;rounded=0;container=1;" parent="1" vertex="1">
          <mxGeometry x="90" y="445" width="60" height="30" as="geometry" />
        </mxCell>
        <mxCell id="zORfP8hQOZwvnDJM3XV8-95" value="" style="endArrow=none;html=1;rounded=0;entryX=0;entryY=0.5;entryDx=0;entryDy=0;exitX=1;exitY=0.25;exitDx=0;exitDy=0;" parent="1" source="zORfP8hQOZwvnDJM3XV8-135" target="zORfP8hQOZwvnDJM3XV8-93" edge="1">
          <mxGeometry relative="1" as="geometry">
            <mxPoint x="-100" y="450" as="sourcePoint" />
            <mxPoint x="280" y="385" as="targetPoint" />
          </mxGeometry>
        </mxCell>
        <mxCell id="zORfP8hQOZwvnDJM3XV8-96" value="N" style="text;html=1;align=center;verticalAlign=middle;whiteSpace=wrap;rounded=0;" parent="1" vertex="1">
          <mxGeometry x="340" y="300" width="60" height="30" as="geometry" />
        </mxCell>
        <mxCell id="zORfP8hQOZwvnDJM3XV8-97" value="" style="endArrow=none;html=1;rounded=0;entryX=0;entryY=0.75;entryDx=0;entryDy=0;exitX=1;exitY=0.5;exitDx=0;exitDy=0;" parent="1" source="zORfP8hQOZwvnDJM3XV8-93" target="zORfP8hQOZwvnDJM3XV8-1" edge="1">
          <mxGeometry relative="1" as="geometry">
            <mxPoint x="280" y="325" as="sourcePoint" />
            <mxPoint x="470" y="260" as="targetPoint" />
          </mxGeometry>
        </mxCell>
        <mxCell id="zORfP8hQOZwvnDJM3XV8-98" value="&lt;font face=&quot;Lucida Console&quot;&gt;RECEIVES&lt;/font&gt;" style="shape=rhombus;perimeter=rhombusPerimeter;whiteSpace=wrap;html=1;align=center;" parent="1" vertex="1">
          <mxGeometry x="-380" y="862.5" width="120" height="60" as="geometry" />
        </mxCell>
        <mxCell id="zORfP8hQOZwvnDJM3XV8-99" value="N" style="text;html=1;align=center;verticalAlign=middle;whiteSpace=wrap;rounded=0;container=1;" parent="1" vertex="1">
          <mxGeometry x="-65" y="940" width="60" height="30" as="geometry" />
        </mxCell>
        <mxCell id="zORfP8hQOZwvnDJM3XV8-100" value="" style="endArrow=none;html=1;rounded=0;entryX=0.5;entryY=1;entryDx=0;entryDy=0;" parent="1" source="zORfP8hQOZwvnDJM3XV8-54" target="zORfP8hQOZwvnDJM3XV8-98" edge="1">
          <mxGeometry relative="1" as="geometry">
            <mxPoint x="-290" y="765" as="sourcePoint" />
            <mxPoint x="-310" y="920" as="targetPoint" />
          </mxGeometry>
        </mxCell>
        <mxCell id="zORfP8hQOZwvnDJM3XV8-101" value="1" style="text;html=1;align=center;verticalAlign=middle;whiteSpace=wrap;rounded=0;" parent="1" vertex="1">
          <mxGeometry x="-360" y="805" width="60" height="30" as="geometry" />
        </mxCell>
        <mxCell id="zORfP8hQOZwvnDJM3XV8-102" value="" style="endArrow=none;html=1;rounded=0;entryX=0.203;entryY=0.961;entryDx=0;entryDy=0;entryPerimeter=0;" parent="1" target="zORfP8hQOZwvnDJM3XV8-135" edge="1">
          <mxGeometry relative="1" as="geometry">
            <mxPoint x="-280" y="665" as="sourcePoint" />
            <mxPoint x="-330" y="590" as="targetPoint" />
          </mxGeometry>
        </mxCell>
        <mxCell id="zORfP8hQOZwvnDJM3XV8-103" value="&lt;font face=&quot;Lucida Console&quot;&gt;HANDLES&lt;/font&gt;" style="shape=rhombus;perimeter=rhombusPerimeter;whiteSpace=wrap;html=1;align=center;" parent="1" vertex="1">
          <mxGeometry x="435" y="510" width="120" height="60" as="geometry" />
        </mxCell>
        <mxCell id="zORfP8hQOZwvnDJM3XV8-104" value="&lt;font face=&quot;Lucida Console&quot;&gt;M&lt;/font&gt;" style="text;html=1;align=center;verticalAlign=middle;whiteSpace=wrap;rounded=0;container=1;" parent="1" vertex="1">
          <mxGeometry x="440" y="600" width="60" height="30" as="geometry" />
        </mxCell>
        <mxCell id="zORfP8hQOZwvnDJM3XV8-105" value="" style="endArrow=none;html=1;rounded=0;exitX=0.5;exitY=1;exitDx=0;exitDy=0;" parent="1" source="zORfP8hQOZwvnDJM3XV8-103" edge="1">
          <mxGeometry relative="1" as="geometry">
            <mxPoint x="500" y="590" as="sourcePoint" />
            <mxPoint x="485" y="675" as="targetPoint" />
          </mxGeometry>
        </mxCell>
        <mxCell id="zORfP8hQOZwvnDJM3XV8-106" value="&lt;font face=&quot;Lucida Console&quot;&gt;N&lt;/font&gt;" style="text;strokeColor=none;fillColor=none;spacingLeft=4;spacingRight=4;overflow=hidden;rotatable=0;points=[[0,0.5],[1,0.5]];portConstraint=eastwest;fontSize=12;whiteSpace=wrap;html=1;" parent="1" vertex="1">
          <mxGeometry x="515" y="477.5" width="40" height="30" as="geometry" />
        </mxCell>
        <mxCell id="zORfP8hQOZwvnDJM3XV8-107" value="" style="endArrow=none;html=1;rounded=0;exitX=0.5;exitY=1;exitDx=0;exitDy=0;entryX=0.5;entryY=0;entryDx=0;entryDy=0;" parent="1" source="zORfP8hQOZwvnDJM3XV8-1" target="zORfP8hQOZwvnDJM3XV8-103" edge="1">
          <mxGeometry relative="1" as="geometry">
            <mxPoint x="470" y="480" as="sourcePoint" />
            <mxPoint x="510" y="520" as="targetPoint" />
          </mxGeometry>
        </mxCell>
        <mxCell id="zORfP8hQOZwvnDJM3XV8-108" value="&lt;font face=&quot;Lucida Console&quot;&gt;CONDUCTS&lt;/font&gt;" style="shape=rhombus;perimeter=rhombusPerimeter;whiteSpace=wrap;html=1;align=center;" parent="1" vertex="1">
          <mxGeometry x="675" y="980" width="120" height="60" as="geometry" />
        </mxCell>
        <mxCell id="zORfP8hQOZwvnDJM3XV8-109" value="&lt;font face=&quot;Lucida Console&quot;&gt;N&lt;/font&gt;" style="text;html=1;align=center;verticalAlign=middle;whiteSpace=wrap;rounded=0;container=1;" parent="1" vertex="1">
          <mxGeometry x="815" y="1017.5" width="60" height="30" as="geometry" />
        </mxCell>
        <mxCell id="zORfP8hQOZwvnDJM3XV8-110" value="" style="endArrow=none;html=1;rounded=0;exitX=1;exitY=0.5;exitDx=0;exitDy=0;" parent="1" source="zORfP8hQOZwvnDJM3XV8-108" target="zORfP8hQOZwvnDJM3XV8-47" edge="1">
          <mxGeometry relative="1" as="geometry">
            <mxPoint x="740" y="1040.9523809523807" as="sourcePoint" />
            <mxPoint x="715" y="1130" as="targetPoint" />
          </mxGeometry>
        </mxCell>
        <mxCell id="zORfP8hQOZwvnDJM3XV8-111" value="&lt;font face=&quot;Lucida Console&quot;&gt;1&lt;/font&gt;" style="text;strokeColor=none;fillColor=none;spacingLeft=4;spacingRight=4;overflow=hidden;rotatable=0;points=[[0,0.5],[1,0.5]];portConstraint=eastwest;fontSize=12;whiteSpace=wrap;html=1;" parent="1" vertex="1">
          <mxGeometry x="610" y="940" width="40" height="30" as="geometry" />
        </mxCell>
        <mxCell id="zORfP8hQOZwvnDJM3XV8-112" value="" style="endArrow=none;html=1;rounded=0;exitX=0;exitY=0.5;exitDx=0;exitDy=0;entryX=1;entryY=0.5;entryDx=0;entryDy=0;" parent="1" source="zORfP8hQOZwvnDJM3XV8-108" target="zORfP8hQOZwvnDJM3XV8-66" edge="1">
          <mxGeometry relative="1" as="geometry">
            <mxPoint x="690" y="850" as="sourcePoint" />
            <mxPoint x="500" y="710" as="targetPoint" />
          </mxGeometry>
        </mxCell>
        <mxCell id="zORfP8hQOZwvnDJM3XV8-113" style="edgeStyle=orthogonalEdgeStyle;rounded=0;orthogonalLoop=1;jettySize=auto;html=1;exitX=0.5;exitY=1;exitDx=0;exitDy=0;" parent="1" edge="1">
          <mxGeometry relative="1" as="geometry">
            <mxPoint x="-1410.5" y="647.51" as="sourcePoint" />
            <mxPoint x="-1410.5" y="647.51" as="targetPoint" />
          </mxGeometry>
        </mxCell>
        <mxCell id="zORfP8hQOZwvnDJM3XV8-114" value="&lt;font face=&quot;Lucida Console&quot;&gt;RECEIVES&lt;/font&gt;" style="shape=rhombus;perimeter=rhombusPerimeter;whiteSpace=wrap;html=1;align=center;" parent="1" vertex="1">
          <mxGeometry x="-689.9999999999995" y="617.5" width="120" height="60" as="geometry" />
        </mxCell>
        <mxCell id="zORfP8hQOZwvnDJM3XV8-115" value="&lt;font face=&quot;Lucida Console&quot;&gt;N&lt;/font&gt;" style="text;strokeColor=none;fillColor=none;spacingLeft=4;spacingRight=4;overflow=hidden;rotatable=0;points=[[0,0.5],[1,0.5]];portConstraint=eastwest;fontSize=12;whiteSpace=wrap;html=1;" parent="1" vertex="1">
          <mxGeometry x="-849.9999999999995" y="600" width="40" height="30" as="geometry" />
        </mxCell>
        <mxCell id="zORfP8hQOZwvnDJM3XV8-116" value="" style="endArrow=none;html=1;rounded=0;exitX=0;exitY=0.5;exitDx=0;exitDy=0;entryX=1;entryY=0.5;entryDx=0;entryDy=0;" parent="1" source="zORfP8hQOZwvnDJM3XV8-114" target="zORfP8hQOZwvnDJM3XV8-36" edge="1">
          <mxGeometry relative="1" as="geometry">
            <mxPoint x="-649.9999999999995" y="250" as="sourcePoint" />
            <mxPoint x="-489.99999999999955" y="250" as="targetPoint" />
          </mxGeometry>
        </mxCell>
        <mxCell id="zORfP8hQOZwvnDJM3XV8-117" value="&lt;font face=&quot;Lucida Console&quot;&gt;BELONGS TO&lt;/font&gt;" style="shape=rhombus;perimeter=rhombusPerimeter;whiteSpace=wrap;html=1;align=center;" parent="1" vertex="1">
          <mxGeometry x="-1249.9999999999995" y="725" width="120" height="60" as="geometry" />
        </mxCell>
        <mxCell id="zORfP8hQOZwvnDJM3XV8-118" value="&lt;font face=&quot;Lucida Console&quot;&gt;M&lt;/font&gt;" style="text;html=1;align=center;verticalAlign=middle;whiteSpace=wrap;rounded=0;container=1;" parent="1" vertex="1">
          <mxGeometry x="-1209.9999999999995" y="815" width="60" height="30" as="geometry" />
        </mxCell>
        <mxCell id="zORfP8hQOZwvnDJM3XV8-119" value="" style="endArrow=none;html=1;rounded=0;entryX=0.75;entryY=0;entryDx=0;entryDy=0;" parent="1" target="zORfP8hQOZwvnDJM3XV8-25" edge="1">
          <mxGeometry relative="1" as="geometry">
            <mxPoint x="-1190" y="782.5" as="sourcePoint" />
            <mxPoint x="-1209.9999999999995" y="875" as="targetPoint" />
          </mxGeometry>
        </mxCell>
        <mxCell id="zORfP8hQOZwvnDJM3XV8-120" value="&lt;font face=&quot;Lucida Console&quot;&gt;N&lt;/font&gt;" style="text;strokeColor=none;fillColor=none;spacingLeft=4;spacingRight=4;overflow=hidden;rotatable=0;points=[[0,0.5],[1,0.5]];portConstraint=eastwest;fontSize=12;whiteSpace=wrap;html=1;" parent="1" vertex="1">
          <mxGeometry x="-1179.9999999999995" y="677.5" width="40" height="30" as="geometry" />
        </mxCell>
        <mxCell id="zORfP8hQOZwvnDJM3XV8-121" value="" style="endArrow=none;html=1;rounded=0;exitX=0.5;exitY=0;exitDx=0;exitDy=0;" parent="1" source="zORfP8hQOZwvnDJM3XV8-117" edge="1">
          <mxGeometry relative="1" as="geometry">
            <mxPoint x="-1359.9999999999995" y="642.5" as="sourcePoint" />
            <mxPoint x="-1199.9999999999995" y="642.5" as="targetPoint" />
          </mxGeometry>
        </mxCell>
        <mxCell id="zORfP8hQOZwvnDJM3XV8-122" value="&lt;font face=&quot;Lucida Console&quot;&gt;GENERATES&lt;/font&gt;" style="shape=rhombus;perimeter=rhombusPerimeter;whiteSpace=wrap;html=1;align=center;" parent="1" vertex="1">
          <mxGeometry x="545.0000000000005" y="1177.5" width="120" height="60" as="geometry" />
        </mxCell>
        <mxCell id="zORfP8hQOZwvnDJM3XV8-123" value="&lt;font face=&quot;Lucida Console&quot;&gt;N&lt;/font&gt;" style="text;html=1;align=center;verticalAlign=middle;whiteSpace=wrap;rounded=0;container=1;" parent="1" vertex="1">
          <mxGeometry x="370.00000000000045" y="1130" width="60" height="30" as="geometry" />
        </mxCell>
        <mxCell id="zORfP8hQOZwvnDJM3XV8-124" value="" style="endArrow=none;html=1;rounded=0;entryX=0;entryY=1;entryDx=0;entryDy=0;exitX=1;exitY=0.5;exitDx=0;exitDy=0;" parent="1" source="zORfP8hQOZwvnDJM3XV8-122" target="zORfP8hQOZwvnDJM3XV8-47" edge="1">
          <mxGeometry relative="1" as="geometry">
            <mxPoint x="610.0000000000005" y="1290.9523809523807" as="sourcePoint" />
            <mxPoint x="585.0000000000005" y="1380" as="targetPoint" />
          </mxGeometry>
        </mxCell>
        <mxCell id="zORfP8hQOZwvnDJM3XV8-125" value="&lt;font face=&quot;Lucida Console&quot;&gt;1&lt;/font&gt;" style="text;strokeColor=none;fillColor=none;spacingLeft=4;spacingRight=4;overflow=hidden;rotatable=0;points=[[0,0.5],[1,0.5]];portConstraint=eastwest;fontSize=12;whiteSpace=wrap;html=1;" parent="1" vertex="1">
          <mxGeometry x="745.0000000000005" y="1177.5" width="40" height="30" as="geometry" />
        </mxCell>
        <mxCell id="zORfP8hQOZwvnDJM3XV8-126" value="" style="endArrow=none;html=1;rounded=0;exitX=0;exitY=0.5;exitDx=0;exitDy=0;entryX=1;entryY=0.5;entryDx=0;entryDy=0;" parent="1" source="zORfP8hQOZwvnDJM3XV8-122" target="zORfP8hQOZwvnDJM3XV8-54" edge="1">
          <mxGeometry relative="1" as="geometry">
            <mxPoint x="460.00000000000045" y="1000" as="sourcePoint" />
            <mxPoint x="620.0000000000005" y="1000" as="targetPoint" />
          </mxGeometry>
        </mxCell>
        <mxCell id="zORfP8hQOZwvnDJM3XV8-127" value="&lt;font face=&quot;Lucida Console&quot;&gt;REPRESENTS&lt;/font&gt;" style="shape=rhombus;perimeter=rhombusPerimeter;whiteSpace=wrap;html=1;align=center;" parent="1" vertex="1">
          <mxGeometry x="640.0000000000005" y="472.5" width="120" height="60" as="geometry" />
        </mxCell>
        <mxCell id="zORfP8hQOZwvnDJM3XV8-128" value="&lt;font face=&quot;Lucida Console&quot;&gt;1&lt;/font&gt;" style="text;html=1;align=center;verticalAlign=middle;whiteSpace=wrap;rounded=0;container=1;" parent="1" vertex="1">
          <mxGeometry x="570.0000000000005" y="560" width="60" height="30" as="geometry" />
        </mxCell>
        <mxCell id="zORfP8hQOZwvnDJM3XV8-129" value="" style="endArrow=none;html=1;rounded=0;entryX=0.995;entryY=0.138;entryDx=0;entryDy=0;entryPerimeter=0;exitX=0;exitY=0.5;exitDx=0;exitDy=0;" parent="1" source="zORfP8hQOZwvnDJM3XV8-127" target="zORfP8hQOZwvnDJM3XV8-66" edge="1">
          <mxGeometry relative="1" as="geometry">
            <mxPoint x="705.0000000000005" y="533.4523809523807" as="sourcePoint" />
            <mxPoint x="680.0000000000005" y="622.5" as="targetPoint" />
          </mxGeometry>
        </mxCell>
        <mxCell id="zORfP8hQOZwvnDJM3XV8-130" value="&lt;font face=&quot;Lucida Console&quot;&gt;1&lt;/font&gt;" style="text;strokeColor=none;fillColor=none;spacingLeft=4;spacingRight=4;overflow=hidden;rotatable=0;points=[[0,0.5],[1,0.5]];portConstraint=eastwest;fontSize=12;whiteSpace=wrap;html=1;" parent="1" vertex="1">
          <mxGeometry x="785.0000000000005" y="462.5" width="40" height="30" as="geometry" />
        </mxCell>
        <mxCell id="zORfP8hQOZwvnDJM3XV8-131" value="" style="endArrow=none;html=1;rounded=0;exitX=1;exitY=0.5;exitDx=0;exitDy=0;entryX=-0.017;entryY=0.368;entryDx=0;entryDy=0;entryPerimeter=0;" parent="1" source="zORfP8hQOZwvnDJM3XV8-127" target="zORfP8hQOZwvnDJM3XV8-75" edge="1">
          <mxGeometry relative="1" as="geometry">
            <mxPoint x="530.0000000000005" y="390" as="sourcePoint" />
            <mxPoint x="690.0000000000005" y="390" as="targetPoint" />
          </mxGeometry>
        </mxCell>
        <mxCell id="zORfP8hQOZwvnDJM3XV8-132" value="" style="endArrow=none;html=1;rounded=0;exitX=0.687;exitY=0;exitDx=0;exitDy=0;exitPerimeter=0;entryX=0;entryY=1;entryDx=0;entryDy=0;" parent="1" source="zORfP8hQOZwvnDJM3XV8-133" target="zORfP8hQOZwvnDJM3XV8-25" edge="1">
          <mxGeometry relative="1" as="geometry">
            <mxPoint x="-1360" y="1062.5" as="sourcePoint" />
            <mxPoint x="-1329.5" y="962.5" as="targetPoint" />
          </mxGeometry>
        </mxCell>
        <mxCell id="zORfP8hQOZwvnDJM3XV8-133" value="&lt;font face=&quot;Lucida Console&quot;&gt;manufacturing_date&lt;/font&gt;" style="ellipse;whiteSpace=wrap;html=1;align=center;" parent="1" vertex="1">
          <mxGeometry x="-1490" y="1082.5" width="130" height="40" as="geometry" />
        </mxCell>
        <mxCell id="zORfP8hQOZwvnDJM3XV8-134" value="Attribute" style="ellipse;whiteSpace=wrap;html=1;align=center;" parent="1" vertex="1">
          <mxGeometry x="-295" y="635" width="100" height="40" as="geometry" />
        </mxCell>
        <mxCell id="zORfP8hQOZwvnDJM3XV8-135" value="Patient" style="whiteSpace=wrap;html=1;align=center;fontFamily=Lucida Console;fontSize=20;" parent="1" vertex="1">
          <mxGeometry x="-325" y="635" width="150" height="70" as="geometry" />
        </mxCell>
        <mxCell id="zORfP8hQOZwvnDJM3XV8-136" value="" style="line;strokeWidth=1;rotatable=0;dashed=0;labelPosition=right;align=left;verticalAlign=middle;spacingTop=0;spacingLeft=6;points=[];portConstraint=eastwest;" parent="1" vertex="1">
          <mxGeometry x="-175" y="670" width="60" height="10" as="geometry" />
        </mxCell>
        <mxCell id="zORfP8hQOZwvnDJM3XV8-137" value="name" style="ellipse;whiteSpace=wrap;html=1;align=center;" parent="1" vertex="1">
          <mxGeometry x="-295" y="765" width="100" height="35" as="geometry" />
        </mxCell>
        <mxCell id="zORfP8hQOZwvnDJM3XV8-138" value="" style="line;strokeWidth=1;rotatable=0;dashed=0;labelPosition=right;align=left;verticalAlign=middle;spacingTop=0;spacingLeft=6;points=[];portConstraint=eastwest;direction=south;" parent="1" vertex="1">
          <mxGeometry x="-250" y="705" width="10" height="60" as="geometry" />
        </mxCell>
        <mxCell id="zORfP8hQOZwvnDJM3XV8-139" value="age" style="ellipse;whiteSpace=wrap;html=1;align=center;" parent="1" vertex="1">
          <mxGeometry x="-485" y="657.5" width="100" height="35" as="geometry" />
        </mxCell>
        <mxCell id="zORfP8hQOZwvnDJM3XV8-140" value="" style="line;strokeWidth=1;rotatable=0;dashed=0;labelPosition=right;align=left;verticalAlign=middle;spacingTop=0;spacingLeft=6;points=[];portConstraint=eastwest;" parent="1" vertex="1">
          <mxGeometry x="-385" y="670" width="60" height="10" as="geometry" />
        </mxCell>
        <mxCell id="zORfP8hQOZwvnDJM3XV8-141" value="gender" style="ellipse;whiteSpace=wrap;html=1;align=center;" parent="1" vertex="1">
          <mxGeometry x="-305" y="535" width="100" height="35" as="geometry" />
        </mxCell>
        <mxCell id="zORfP8hQOZwvnDJM3XV8-142" value="" style="line;strokeWidth=1;rotatable=0;dashed=0;labelPosition=right;align=left;verticalAlign=middle;spacingTop=0;spacingLeft=6;points=[];portConstraint=eastwest;direction=south;" parent="1" vertex="1">
          <mxGeometry x="-260" y="570" width="10" height="60" as="geometry" />
        </mxCell>
        <mxCell id="zORfP8hQOZwvnDJM3XV8-143" value="" style="endArrow=none;html=1;rounded=0;" parent="1" edge="1">
          <mxGeometry width="50" height="50" relative="1" as="geometry">
            <mxPoint x="-175" y="635" as="sourcePoint" />
            <mxPoint x="-125" y="585" as="targetPoint" />
          </mxGeometry>
        </mxCell>
        <mxCell id="zORfP8hQOZwvnDJM3XV8-144" value="" style="endArrow=none;html=1;rounded=0;" parent="1" edge="1">
          <mxGeometry width="50" height="50" relative="1" as="geometry">
            <mxPoint x="-375" y="755" as="sourcePoint" />
            <mxPoint x="-325" y="705" as="targetPoint" />
          </mxGeometry>
        </mxCell>
        <mxCell id="zORfP8hQOZwvnDJM3XV8-145" value="contact" style="ellipse;whiteSpace=wrap;html=1;align=center;" parent="1" vertex="1">
          <mxGeometry x="-435" y="755" width="100" height="35" as="geometry" />
        </mxCell>
        <mxCell id="zORfP8hQOZwvnDJM3XV8-146" value="address" style="ellipse;whiteSpace=wrap;html=1;align=center;" parent="1" vertex="1">
          <mxGeometry x="-185" y="550" width="100" height="35" as="geometry" />
        </mxCell>
        <mxCell id="zORfP8hQOZwvnDJM3XV8-149" value="1" style="text;html=1;align=center;verticalAlign=middle;whiteSpace=wrap;rounded=0;container=1;" parent="1" vertex="1">
          <mxGeometry x="-335" y="480" width="60" height="30" as="geometry" />
        </mxCell>
        <mxCell id="zORfP8hQOZwvnDJM3XV8-150" value="" style="endArrow=none;html=1;rounded=0;entryX=0.5;entryY=1;entryDx=0;entryDy=0;" parent="1" target="zORfP8hQOZwvnDJM3XV8-154" edge="1">
          <mxGeometry relative="1" as="geometry">
            <mxPoint x="-315" y="635" as="sourcePoint" />
            <mxPoint x="-365" y="560" as="targetPoint" />
          </mxGeometry>
        </mxCell>
        <mxCell id="zORfP8hQOZwvnDJM3XV8-151" value="&lt;font face=&quot;Lucida Console&quot;&gt;1&lt;/font&gt;" style="text;html=1;align=center;verticalAlign=middle;whiteSpace=wrap;rounded=0;container=1;" parent="1" vertex="1">
          <mxGeometry x="-469.99999999999955" y="620" width="60" height="30" as="geometry" />
        </mxCell>
        <mxCell id="zORfP8hQOZwvnDJM3XV8-152" value="" style="endArrow=none;html=1;rounded=0;exitX=1;exitY=0.5;exitDx=0;exitDy=0;" parent="1" source="zORfP8hQOZwvnDJM3XV8-114" edge="1">
          <mxGeometry relative="1" as="geometry">
            <mxPoint x="-539.9999999999995" y="603.4523809523807" as="sourcePoint" />
            <mxPoint x="-325" y="650" as="targetPoint" />
          </mxGeometry>
        </mxCell>
        <mxCell id="zORfP8hQOZwvnDJM3XV8-153" value="patient_id" style="ellipse;whiteSpace=wrap;html=1;align=center;fontStyle=4;" parent="1" vertex="1">
          <mxGeometry x="-120" y="650" width="100" height="35" as="geometry" />
        </mxCell>
        <mxCell id="zORfP8hQOZwvnDJM3XV8-154" value="&lt;font face=&quot;Lucida Console&quot;&gt;RECEIVES&lt;/font&gt;" style="shape=rhombus;perimeter=rhombusPerimeter;whiteSpace=wrap;html=1;align=center;" parent="1" vertex="1">
          <mxGeometry x="-350" y="395" width="120" height="60" as="geometry" />
        </mxCell>
        <mxCell id="zORfP8hQOZwvnDJM3XV8-155" value="" style="endArrow=none;html=1;rounded=0;entryX=0.25;entryY=1;entryDx=0;entryDy=0;" parent="1" target="zORfP8hQOZwvnDJM3XV8-135" edge="1">
          <mxGeometry relative="1" as="geometry">
            <mxPoint x="-320" y="860" as="sourcePoint" />
            <mxPoint x="-325" y="830" as="targetPoint" />
          </mxGeometry>
        </mxCell>
        <mxCell id="zORfP8hQOZwvnDJM3XV8-156" value="&lt;font face=&quot;Lucida Console&quot; style=&quot;font-size: 20px;&quot;&gt;Medical History&lt;/font&gt;" style="rounded=0;whiteSpace=wrap;html=1;" parent="1" vertex="1">
          <mxGeometry x="-780" y="1082.5" width="210" height="60" as="geometry" />
        </mxCell>
        <mxCell id="zORfP8hQOZwvnDJM3XV8-157" value="" style="endArrow=none;html=1;rounded=0;entryX=0.25;entryY=1;entryDx=0;entryDy=0;exitX=0.659;exitY=0.048;exitDx=0;exitDy=0;exitPerimeter=0;" parent="1" source="zORfP8hQOZwvnDJM3XV8-158" edge="1">
          <mxGeometry width="50" height="50" relative="1" as="geometry">
            <mxPoint x="-790" y="1242.5" as="sourcePoint" />
            <mxPoint x="-745" y="1142.5" as="targetPoint" />
          </mxGeometry>
        </mxCell>
        <mxCell id="zORfP8hQOZwvnDJM3XV8-158" value="&lt;font face=&quot;Lucida Console&quot;&gt;&lt;span style=&quot;font-size: 15px;&quot;&gt;HPI&lt;/span&gt;&lt;/font&gt;" style="ellipse;whiteSpace=wrap;html=1;align=center;" parent="1" vertex="1">
          <mxGeometry x="-860" y="1247.5" width="100" height="40" as="geometry" />
        </mxCell>
        <mxCell id="zORfP8hQOZwvnDJM3XV8-159" value="&lt;span data-end=&quot;799&quot; data-start=&quot;775&quot;&gt;&lt;font style=&quot;font-size: 13px;&quot; face=&quot;Lucida Console&quot;&gt;Past Medical History&lt;/font&gt;&lt;/span&gt;" style="ellipse;whiteSpace=wrap;html=1;align=center;" parent="1" vertex="1">
          <mxGeometry x="-740" y="1252.5" width="130" height="40" as="geometry" />
        </mxCell>
        <mxCell id="zORfP8hQOZwvnDJM3XV8-160" value="" style="endArrow=none;html=1;rounded=0;entryX=0.547;entryY=0.992;entryDx=0;entryDy=0;entryPerimeter=0;" parent="1" target="zORfP8hQOZwvnDJM3XV8-156" edge="1">
          <mxGeometry width="50" height="50" relative="1" as="geometry">
            <mxPoint x="-680" y="1252.5" as="sourcePoint" />
            <mxPoint x="-690" y="1142.5" as="targetPoint" />
          </mxGeometry>
        </mxCell>
        <mxCell id="zORfP8hQOZwvnDJM3XV8-161" value="&lt;font face=&quot;Lucida Console&quot;&gt;&lt;span style=&quot;font-size: 13px;&quot;&gt;Patient_ID&lt;/span&gt;&lt;/font&gt;" style="ellipse;whiteSpace=wrap;html=1;align=center;fontStyle=4;" parent="1" vertex="1">
          <mxGeometry x="-590" y="1252.5" width="100" height="40" as="geometry" />
        </mxCell>
        <mxCell id="zORfP8hQOZwvnDJM3XV8-162" value="" style="endArrow=none;html=1;rounded=0;entryX=0.889;entryY=1;entryDx=0;entryDy=0;entryPerimeter=0;exitX=0.279;exitY=-0.026;exitDx=0;exitDy=0;exitPerimeter=0;" parent="1" source="zORfP8hQOZwvnDJM3XV8-161" target="zORfP8hQOZwvnDJM3XV8-156" edge="1">
          <mxGeometry width="50" height="50" relative="1" as="geometry">
            <mxPoint x="-700" y="1412.5" as="sourcePoint" />
            <mxPoint x="-650" y="1362.5" as="targetPoint" />
          </mxGeometry>
        </mxCell>
        <mxCell id="zORfP8hQOZwvnDJM3XV8-163" value="&lt;font face=&quot;Lucida Console&quot;&gt;Allergy Information&lt;/font&gt;" style="ellipse;whiteSpace=wrap;html=1;align=center;" parent="1" vertex="1">
          <mxGeometry x="-970" y="1252.5" width="100" height="40" as="geometry" />
        </mxCell>
        <mxCell id="zORfP8hQOZwvnDJM3XV8-164" value="" style="endArrow=none;html=1;rounded=0;entryX=0.07;entryY=1.012;entryDx=0;entryDy=0;entryPerimeter=0;exitX=1;exitY=0;exitDx=0;exitDy=0;" parent="1" source="zORfP8hQOZwvnDJM3XV8-163" target="zORfP8hQOZwvnDJM3XV8-156" edge="1">
          <mxGeometry width="50" height="50" relative="1" as="geometry">
            <mxPoint x="-700" y="1412.5" as="sourcePoint" />
            <mxPoint x="-650" y="1362.5" as="targetPoint" />
          </mxGeometry>
        </mxCell>
        <mxCell id="zORfP8hQOZwvnDJM3XV8-165" value="" style="endArrow=none;html=1;rounded=0;entryX=1;entryY=1;entryDx=0;entryDy=0;" parent="1" target="zORfP8hQOZwvnDJM3XV8-156" edge="1">
          <mxGeometry width="50" height="50" relative="1" as="geometry">
            <mxPoint x="-414.3091220904371" y="1255.022853399032" as="sourcePoint" />
            <mxPoint x="-600" y="1292.5" as="targetPoint" />
          </mxGeometry>
        </mxCell>
        <mxCell id="zORfP8hQOZwvnDJM3XV8-166" value="&lt;h3 data-end=&quot;949&quot; data-start=&quot;920&quot;&gt;&lt;span style=&quot;font-weight: normal;&quot; data-end=&quot;949&quot; data-start=&quot;927&quot;&gt;&lt;font face=&quot;Lucida Console&quot; style=&quot;font-size: 12px;&quot;&gt;Medication History&lt;/font&gt;&lt;/span&gt;&lt;/h3&gt;" style="ellipse;whiteSpace=wrap;html=1;align=center;" parent="1" vertex="1">
          <mxGeometry x="-450" y="1252.5" width="110" height="35" as="geometry" />
        </mxCell>
        <mxCell id="zORfP8hQOZwvnDJM3XV8-167" value="&lt;font face=&quot;Lucida Console&quot;&gt;&lt;span style=&quot;font-size: 20px;&quot;&gt;Pharmacy&lt;/span&gt;&lt;/font&gt;" style="rounded=0;whiteSpace=wrap;html=1;" parent="1" vertex="1">
          <mxGeometry x="-1865" y="777.5" width="210" height="60" as="geometry" />
        </mxCell>
        <mxCell id="zORfP8hQOZwvnDJM3XV8-168" value="" style="endArrow=none;html=1;rounded=0;entryX=0.25;entryY=1;entryDx=0;entryDy=0;" parent="1" edge="1">
          <mxGeometry width="50" height="50" relative="1" as="geometry">
            <mxPoint x="-1875" y="937.5" as="sourcePoint" />
            <mxPoint x="-1830" y="837.5" as="targetPoint" />
          </mxGeometry>
        </mxCell>
        <mxCell id="zORfP8hQOZwvnDJM3XV8-169" value="&lt;span data-end=&quot;414&quot; data-start=&quot;401&quot;&gt;&lt;font style=&quot;&quot; face=&quot;Lucida Console&quot;&gt;Drug Name&lt;/font&gt;&lt;/span&gt;" style="ellipse;whiteSpace=wrap;html=1;align=center;" parent="1" vertex="1">
          <mxGeometry x="-1925" y="930" width="100" height="40" as="geometry" />
        </mxCell>
        <mxCell id="zORfP8hQOZwvnDJM3XV8-170" value="&lt;font face=&quot;Lucida Console&quot;&gt;&lt;span style=&quot;font-size: 13px;&quot;&gt;Drug Cate&lt;/span&gt;&lt;/font&gt;&lt;span style=&quot;font-size: 13px; font-family: &amp;quot;Lucida Console&amp;quot;; background-color: transparent; color: light-dark(rgb(0, 0, 0), rgb(255, 255, 255));&quot;&gt;gory&lt;/span&gt;" style="ellipse;whiteSpace=wrap;html=1;align=center;" parent="1" vertex="1">
          <mxGeometry x="-1825" y="947.5" width="130" height="40" as="geometry" />
        </mxCell>
        <mxCell id="zORfP8hQOZwvnDJM3XV8-171" value="" style="endArrow=none;html=1;rounded=0;entryX=0.547;entryY=0.992;entryDx=0;entryDy=0;entryPerimeter=0;" parent="1" target="zORfP8hQOZwvnDJM3XV8-167" edge="1">
          <mxGeometry width="50" height="50" relative="1" as="geometry">
            <mxPoint x="-1765" y="947.5" as="sourcePoint" />
            <mxPoint x="-1775" y="837.5" as="targetPoint" />
          </mxGeometry>
        </mxCell>
        <mxCell id="zORfP8hQOZwvnDJM3XV8-172" value="&lt;span style=&quot;font-family: &amp;quot;Lucida Console&amp;quot;;&quot;&gt;Medicine_ID&lt;/span&gt;" style="ellipse;whiteSpace=wrap;html=1;align=center;fontStyle=4;" parent="1" vertex="1">
          <mxGeometry x="-2080" y="845" width="100" height="40" as="geometry" />
        </mxCell>
        <mxCell id="zORfP8hQOZwvnDJM3XV8-173" value="" style="endArrow=none;html=1;rounded=0;exitX=0.279;exitY=-0.026;exitDx=0;exitDy=0;exitPerimeter=0;entryX=1;entryY=0.5;entryDx=0;entryDy=0;" parent="1" target="zORfP8hQOZwvnDJM3XV8-172" edge="1">
          <mxGeometry width="50" height="50" relative="1" as="geometry">
            <mxPoint x="-1865" y="808.23" as="sourcePoint" />
            <mxPoint x="-1920" y="702.5" as="targetPoint" />
          </mxGeometry>
        </mxCell>
        <mxCell id="zORfP8hQOZwvnDJM3XV8-174" value="&lt;font face=&quot;Lucida Console&quot;&gt;Stock Quantity&lt;/font&gt;" style="ellipse;whiteSpace=wrap;html=1;align=center;" parent="1" vertex="1">
          <mxGeometry x="-2080" y="945" width="120" height="40" as="geometry" />
        </mxCell>
        <mxCell id="zORfP8hQOZwvnDJM3XV8-175" value="" style="endArrow=none;html=1;rounded=0;entryX=0.07;entryY=1.012;entryDx=0;entryDy=0;entryPerimeter=0;exitX=1;exitY=0;exitDx=0;exitDy=0;" parent="1" source="zORfP8hQOZwvnDJM3XV8-174" target="zORfP8hQOZwvnDJM3XV8-167" edge="1">
          <mxGeometry width="50" height="50" relative="1" as="geometry">
            <mxPoint x="-1785" y="1107.5" as="sourcePoint" />
            <mxPoint x="-1735" y="1057.5" as="targetPoint" />
          </mxGeometry>
        </mxCell>
        <mxCell id="zORfP8hQOZwvnDJM3XV8-176" value="&lt;font face=&quot;Lucida Console&quot;&gt;HAS&lt;/font&gt;" style="shape=rhombus;perimeter=rhombusPerimeter;whiteSpace=wrap;html=1;align=center;" parent="1" vertex="1">
          <mxGeometry x="-659.9999999999995" y="862.5" width="120" height="60" as="geometry" />
        </mxCell>
        <mxCell id="zORfP8hQOZwvnDJM3XV8-177" value="&lt;font face=&quot;Lucida Console&quot;&gt;1&lt;/font&gt;" style="text;html=1;align=center;verticalAlign=middle;whiteSpace=wrap;rounded=0;container=1;" parent="1" vertex="1">
          <mxGeometry x="-619.9999999999995" y="952.5" width="60" height="30" as="geometry" />
        </mxCell>
        <mxCell id="zORfP8hQOZwvnDJM3XV8-178" value="" style="endArrow=none;html=1;rounded=0;exitX=0.5;exitY=1;exitDx=0;exitDy=0;" parent="1" source="zORfP8hQOZwvnDJM3XV8-176" edge="1">
          <mxGeometry relative="1" as="geometry">
            <mxPoint x="-594.9999999999995" y="923.4523809523807" as="sourcePoint" />
            <mxPoint x="-660" y="1080" as="targetPoint" />
          </mxGeometry>
        </mxCell>
        <mxCell id="zORfP8hQOZwvnDJM3XV8-179" value="&lt;font face=&quot;Lucida Console&quot;&gt;1&lt;/font&gt;" style="text;strokeColor=none;fillColor=none;spacingLeft=4;spacingRight=4;overflow=hidden;rotatable=0;points=[[0,0.5],[1,0.5]];portConstraint=eastwest;fontSize=12;whiteSpace=wrap;html=1;" parent="1" vertex="1">
          <mxGeometry x="-589.9999999999995" y="815" width="40" height="30" as="geometry" />
        </mxCell>
        <mxCell id="zORfP8hQOZwvnDJM3XV8-180" value="" style="endArrow=none;html=1;rounded=0;exitX=0.5;exitY=0;exitDx=0;exitDy=0;entryX=0;entryY=0.75;entryDx=0;entryDy=0;" parent="1" source="zORfP8hQOZwvnDJM3XV8-176" target="zORfP8hQOZwvnDJM3XV8-135" edge="1">
          <mxGeometry relative="1" as="geometry">
            <mxPoint x="-769.9999999999995" y="780" as="sourcePoint" />
            <mxPoint x="-560" y="730" as="targetPoint" />
          </mxGeometry>
        </mxCell>
        <mxCell id="zORfP8hQOZwvnDJM3XV8-181" value="&lt;font face=&quot;Lucida Console&quot;&gt;GENERATES&lt;/font&gt;" style="shape=rhombus;perimeter=rhombusPerimeter;whiteSpace=wrap;html=1;align=center;" parent="1" vertex="1">
          <mxGeometry x="-1499.9999999999995" y="695" width="120" height="60" as="geometry" />
        </mxCell>
        <mxCell id="zORfP8hQOZwvnDJM3XV8-182" value="&lt;font face=&quot;Lucida Console&quot;&gt;1&lt;/font&gt;" style="text;html=1;align=center;verticalAlign=middle;whiteSpace=wrap;rounded=0;container=1;" parent="1" vertex="1">
          <mxGeometry x="-1549.9999999999995" y="732.5" width="60" height="30" as="geometry" />
        </mxCell>
        <mxCell id="zORfP8hQOZwvnDJM3XV8-183" value="" style="endArrow=none;html=1;rounded=0;entryX=1;entryY=0;entryDx=0;entryDy=0;exitX=0;exitY=0.5;exitDx=0;exitDy=0;" parent="1" source="zORfP8hQOZwvnDJM3XV8-181" target="zORfP8hQOZwvnDJM3XV8-167" edge="1">
          <mxGeometry relative="1" as="geometry">
            <mxPoint x="-1434.9999999999995" y="755.9523809523807" as="sourcePoint" />
            <mxPoint x="-1459.9999999999995" y="845" as="targetPoint" />
          </mxGeometry>
        </mxCell>
        <mxCell id="zORfP8hQOZwvnDJM3XV8-184" value="&lt;font face=&quot;Lucida Console&quot;&gt;N&lt;/font&gt;" style="text;strokeColor=none;fillColor=none;spacingLeft=4;spacingRight=4;overflow=hidden;rotatable=0;points=[[0,0.5],[1,0.5]];portConstraint=eastwest;fontSize=12;whiteSpace=wrap;html=1;" parent="1" vertex="1">
          <mxGeometry x="-1370.4999999999995" y="677.5" width="40" height="30" as="geometry" />
        </mxCell>
        <mxCell id="zORfP8hQOZwvnDJM3XV8-185" value="" style="endArrow=none;html=1;rounded=0;exitX=1;exitY=0.5;exitDx=0;exitDy=0;entryX=0;entryY=1;entryDx=0;entryDy=0;" parent="1" source="zORfP8hQOZwvnDJM3XV8-181" target="zORfP8hQOZwvnDJM3XV8-36" edge="1">
          <mxGeometry relative="1" as="geometry">
            <mxPoint x="-1609.9999999999995" y="612.5" as="sourcePoint" />
            <mxPoint x="-1449.9999999999995" y="612.5" as="targetPoint" />
          </mxGeometry>
        </mxCell>
        <mxCell id="zORfP8hQOZwvnDJM3XV8-186" value="&lt;font face=&quot;Lucida Console&quot;&gt;STOCKS&lt;/font&gt;" style="shape=rhombus;perimeter=rhombusPerimeter;whiteSpace=wrap;html=1;align=center;" parent="1" vertex="1">
          <mxGeometry x="-1609.9999999999995" y="905" width="120" height="60" as="geometry" />
        </mxCell>
        <mxCell id="zORfP8hQOZwvnDJM3XV8-187" value="&lt;font face=&quot;Lucida Console&quot;&gt;N&lt;/font&gt;" style="text;html=1;align=center;verticalAlign=middle;whiteSpace=wrap;rounded=0;container=1;" parent="1" vertex="1">
          <mxGeometry x="-1439.9999999999995" y="925" width="60" height="30" as="geometry" />
        </mxCell>
        <mxCell id="zORfP8hQOZwvnDJM3XV8-188" value="" style="endArrow=none;html=1;rounded=0;entryX=0;entryY=0.5;entryDx=0;entryDy=0;exitX=1;exitY=0.5;exitDx=0;exitDy=0;" parent="1" source="zORfP8hQOZwvnDJM3XV8-186" target="zORfP8hQOZwvnDJM3XV8-25" edge="1">
          <mxGeometry relative="1" as="geometry">
            <mxPoint x="-1544.9999999999995" y="965.9523809523807" as="sourcePoint" />
            <mxPoint x="-1569.9999999999995" y="1055" as="targetPoint" />
          </mxGeometry>
        </mxCell>
        <mxCell id="zORfP8hQOZwvnDJM3XV8-189" value="&lt;font face=&quot;Lucida Console&quot;&gt;1&lt;/font&gt;" style="text;strokeColor=none;fillColor=none;spacingLeft=4;spacingRight=4;overflow=hidden;rotatable=0;points=[[0,0.5],[1,0.5]];portConstraint=eastwest;fontSize=12;whiteSpace=wrap;html=1;" parent="1" vertex="1">
          <mxGeometry x="-1619.9999999999995" y="875" width="40" height="30" as="geometry" />
        </mxCell>
        <mxCell id="zORfP8hQOZwvnDJM3XV8-190" value="" style="endArrow=none;html=1;rounded=0;exitX=0;exitY=0.5;exitDx=0;exitDy=0;entryX=1;entryY=1;entryDx=0;entryDy=0;" parent="1" source="zORfP8hQOZwvnDJM3XV8-186" target="zORfP8hQOZwvnDJM3XV8-167" edge="1">
          <mxGeometry relative="1" as="geometry">
            <mxPoint x="-1719.9999999999995" y="822.5" as="sourcePoint" />
            <mxPoint x="-1559.9999999999995" y="822.5" as="targetPoint" />
          </mxGeometry>
        </mxCell>
        <mxCell id="zORfP8hQOZwvnDJM3XV8-191" value="&lt;font face=&quot;Lucida Console&quot;&gt;WORKS FOR&lt;/font&gt;" style="shape=rhombus;perimeter=rhombusPerimeter;whiteSpace=wrap;html=1;align=center;" parent="1" vertex="1">
          <mxGeometry x="710.0000000000005" y="752.5" width="120" height="60" as="geometry" />
        </mxCell>
        <mxCell id="zORfP8hQOZwvnDJM3XV8-192" value="&lt;font face=&quot;Lucida Console&quot;&gt;1&lt;/font&gt;" style="text;html=1;align=center;verticalAlign=middle;whiteSpace=wrap;rounded=0;container=1;" parent="1" vertex="1">
          <mxGeometry x="875.0000000000005" y="790" width="60" height="30" as="geometry" />
        </mxCell>
        <mxCell id="zORfP8hQOZwvnDJM3XV8-193" value="" style="endArrow=none;html=1;rounded=0;exitX=1;exitY=0.5;exitDx=0;exitDy=0;" parent="1" source="zORfP8hQOZwvnDJM3XV8-191" edge="1">
          <mxGeometry relative="1" as="geometry">
            <mxPoint x="865.0000000000005" y="780.9523809523807" as="sourcePoint" />
            <mxPoint x="1050" y="810" as="targetPoint" />
          </mxGeometry>
        </mxCell>
        <mxCell id="zORfP8hQOZwvnDJM3XV8-194" value="&lt;font face=&quot;Lucida Console&quot;&gt;N&lt;/font&gt;" style="text;strokeColor=none;fillColor=none;spacingLeft=4;spacingRight=4;overflow=hidden;rotatable=0;points=[[0,0.5],[1,0.5]];portConstraint=eastwest;fontSize=12;whiteSpace=wrap;html=1;" parent="1" vertex="1">
          <mxGeometry x="610.0000000000005" y="720" width="40" height="30" as="geometry" />
        </mxCell>
        <mxCell id="zORfP8hQOZwvnDJM3XV8-195" value="" style="endArrow=none;html=1;rounded=0;exitX=0;exitY=0.5;exitDx=0;exitDy=0;entryX=1;entryY=0.25;entryDx=0;entryDy=0;" parent="1" source="zORfP8hQOZwvnDJM3XV8-191" target="zORfP8hQOZwvnDJM3XV8-66" edge="1">
          <mxGeometry relative="1" as="geometry">
            <mxPoint x="690.0000000000005" y="637.5" as="sourcePoint" />
            <mxPoint x="850.0000000000005" y="637.5" as="targetPoint" />
          </mxGeometry>
        </mxCell>
        <mxCell id="zORfP8hQOZwvnDJM3XV8-196" value="&lt;font face=&quot;Lucida Console&quot;&gt;&lt;span style=&quot;font-size: 20px;&quot;&gt;Department&lt;/span&gt;&lt;/font&gt;" style="whiteSpace=wrap;html=1;align=center;" parent="1" vertex="1">
          <mxGeometry x="1050" y="765" width="190" height="70" as="geometry" />
        </mxCell>
        <mxCell id="zORfP8hQOZwvnDJM3XV8-197" style="edgeStyle=orthogonalEdgeStyle;rounded=0;orthogonalLoop=1;jettySize=auto;html=1;exitX=0.5;exitY=1;exitDx=0;exitDy=0;" parent="1" source="zORfP8hQOZwvnDJM3XV8-196" target="zORfP8hQOZwvnDJM3XV8-196" edge="1">
          <mxGeometry relative="1" as="geometry" />
        </mxCell>
        <mxCell id="zORfP8hQOZwvnDJM3XV8-198" value="&lt;font face=&quot;Lucida Console&quot;&gt;department_name&lt;/font&gt;" style="ellipse;whiteSpace=wrap;html=1;align=center;" parent="1" vertex="1">
          <mxGeometry x="1100" y="915" width="110" height="35" as="geometry" />
        </mxCell>
        <mxCell id="zORfP8hQOZwvnDJM3XV8-199" value="&lt;font face=&quot;Lucida Console&quot;&gt;&lt;u&gt;department_id&lt;/u&gt;&lt;/font&gt;" style="ellipse;whiteSpace=wrap;html=1;align=center;" parent="1" vertex="1">
          <mxGeometry x="980" y="910" width="100" height="35" as="geometry" />
        </mxCell>
        <mxCell id="zORfP8hQOZwvnDJM3XV8-200" value="" style="endArrow=none;html=1;rounded=0;exitX=0.6;exitY=-0.029;exitDx=0;exitDy=0;exitPerimeter=0;entryX=0.402;entryY=0.936;entryDx=0;entryDy=0;entryPerimeter=0;" parent="1" source="zORfP8hQOZwvnDJM3XV8-199" target="zORfP8hQOZwvnDJM3XV8-196" edge="1">
          <mxGeometry relative="1" as="geometry">
            <mxPoint x="850" y="1065" as="sourcePoint" />
            <mxPoint x="1080" y="825" as="targetPoint" />
          </mxGeometry>
        </mxCell>
        <mxCell id="zORfP8hQOZwvnDJM3XV8-201" value="" style="endArrow=none;html=1;rounded=0;entryX=0.673;entryY=1.075;entryDx=0;entryDy=0;entryPerimeter=0;exitX=0.4;exitY=0;exitDx=0;exitDy=0;exitPerimeter=0;" parent="1" source="zORfP8hQOZwvnDJM3XV8-198" target="zORfP8hQOZwvnDJM3XV8-196" edge="1">
          <mxGeometry relative="1" as="geometry">
            <mxPoint x="1140" y="905" as="sourcePoint" />
            <mxPoint x="1010" y="1065" as="targetPoint" />
          </mxGeometry>
        </mxCell>
        <mxCell id="zORfP8hQOZwvnDJM3XV8-202" value="" style="endArrow=none;html=1;rounded=0;entryX=0.88;entryY=1.05;entryDx=0;entryDy=0;entryPerimeter=0;" parent="1" target="zORfP8hQOZwvnDJM3XV8-196" edge="1">
          <mxGeometry relative="1" as="geometry">
            <mxPoint x="1260.4848165748854" y="915.3198077046547" as="sourcePoint" />
            <mxPoint x="1230" y="875" as="targetPoint" />
          </mxGeometry>
        </mxCell>
        <mxCell id="zORfP8hQOZwvnDJM3XV8-203" value="" style="endArrow=none;html=1;rounded=0;exitX=0.6;exitY=0;exitDx=0;exitDy=0;exitPerimeter=0;entryX=0.158;entryY=1.025;entryDx=0;entryDy=0;entryPerimeter=0;" parent="1" target="zORfP8hQOZwvnDJM3XV8-196" edge="1">
          <mxGeometry relative="1" as="geometry">
            <mxPoint x="950" y="915" as="sourcePoint" />
            <mxPoint x="1060" y="807" as="targetPoint" />
          </mxGeometry>
        </mxCell>
        <mxCell id="zORfP8hQOZwvnDJM3XV8-204" value="&lt;font face=&quot;Lucida Console&quot;&gt;description&lt;/font&gt;" style="ellipse;whiteSpace=wrap;html=1;align=center;" parent="1" vertex="1">
          <mxGeometry x="1240" y="910" width="100" height="40" as="geometry" />
        </mxCell>
        <mxCell id="zORfP8hQOZwvnDJM3XV8-205" value="&lt;font face=&quot;Lucida Console&quot;&gt;location&lt;/font&gt;" style="ellipse;whiteSpace=wrap;html=1;align=center;" parent="1" vertex="1">
          <mxGeometry x="870" y="910" width="100" height="40" as="geometry" />
        </mxCell>
        <mxCell id="zORfP8hQOZwvnDJM3XV8-206" value="" style="endArrow=none;html=1;rounded=0;exitX=1;exitY=0;exitDx=0;exitDy=0;entryX=0;entryY=0.75;entryDx=0;entryDy=0;" parent="1" source="zORfP8hQOZwvnDJM3XV8-70" target="zORfP8hQOZwvnDJM3XV8-66" edge="1">
          <mxGeometry relative="1" as="geometry">
            <mxPoint x="210" y="745" as="sourcePoint" />
            <mxPoint x="345" y="745.4100000000001" as="targetPoint" />
          </mxGeometry>
        </mxCell>
        <mxCell id="QfhWJS6tFw1KnpFSSSw0-66" value="arrival_time" style="ellipse;whiteSpace=wrap;html=1;align=center;" parent="1" vertex="1">
          <mxGeometry x="395" y="-287.5" width="100" height="40" as="geometry" />
        </mxCell>
        <mxCell id="QfhWJS6tFw1KnpFSSSw0-67" value="Emergency_care" style="whiteSpace=wrap;html=1;align=center;fontFamily=Lucida Console;fontSize=20;" parent="1" vertex="1">
          <mxGeometry x="230" y="-160" width="170" height="70" as="geometry" />
        </mxCell>
        <mxCell id="QfhWJS6tFw1KnpFSSSw0-68" value="" style="line;strokeWidth=1;rotatable=0;dashed=0;labelPosition=right;align=left;verticalAlign=middle;spacingTop=0;spacingLeft=6;points=[];portConstraint=eastwest;" parent="1" vertex="1">
          <mxGeometry x="400" y="-122.5" width="60" height="10" as="geometry" />
        </mxCell>
        <mxCell id="QfhWJS6tFw1KnpFSSSw0-69" value="notes" style="ellipse;whiteSpace=wrap;html=1;align=center;" parent="1" vertex="1">
          <mxGeometry x="330" y="-41.25" width="100" height="35" as="geometry" />
        </mxCell>
        <mxCell id="QfhWJS6tFw1KnpFSSSw0-70" value="" style="line;strokeWidth=1;rotatable=0;dashed=0;labelPosition=right;align=left;verticalAlign=middle;spacingTop=0;spacingLeft=6;points=[];portConstraint=eastwest;direction=south;" parent="1" vertex="1">
          <mxGeometry x="375" y="-90" width="10" height="50" as="geometry" />
        </mxCell>
        <mxCell id="QfhWJS6tFw1KnpFSSSw0-71" value="treatment_given" style="ellipse;whiteSpace=wrap;html=1;align=center;" parent="1" vertex="1">
          <mxGeometry x="50" y="-172.5" width="100" height="35" as="geometry" />
        </mxCell>
        <mxCell id="QfhWJS6tFw1KnpFSSSw0-72" value="" style="line;strokeWidth=1;rotatable=0;dashed=0;labelPosition=right;align=left;verticalAlign=middle;spacingTop=0;spacingLeft=6;points=[];portConstraint=eastwest;" parent="1" vertex="1">
          <mxGeometry x="155" y="-160" width="80" height="10" as="geometry" />
        </mxCell>
        <mxCell id="QfhWJS6tFw1KnpFSSSw0-73" value="" style="endArrow=none;html=1;rounded=0;" parent="1" edge="1">
          <mxGeometry width="50" height="50" relative="1" as="geometry">
            <mxPoint x="400" y="-135" as="sourcePoint" />
            <mxPoint x="450" y="-185" as="targetPoint" />
          </mxGeometry>
        </mxCell>
        <mxCell id="QfhWJS6tFw1KnpFSSSw0-75" value="outcome" style="ellipse;whiteSpace=wrap;html=1;align=center;" parent="1" vertex="1">
          <mxGeometry x="70" y="-75" width="100" height="35" as="geometry" />
        </mxCell>
        <mxCell id="QfhWJS6tFw1KnpFSSSw0-76" value="&lt;u&gt;patient_id&lt;/u&gt;" style="ellipse;whiteSpace=wrap;html=1;align=center;" parent="1" vertex="1">
          <mxGeometry x="425" y="-220" width="100" height="35" as="geometry" />
        </mxCell>
        <mxCell id="QfhWJS6tFw1KnpFSSSw0-77" value="emergency id" style="ellipse;whiteSpace=wrap;html=1;align=center;fontStyle=4;" parent="1" vertex="1">
          <mxGeometry x="460" y="-135" width="100" height="35" as="geometry" />
        </mxCell>
        <mxCell id="QfhWJS6tFw1KnpFSSSw0-78" value="" style="endArrow=none;html=1;rounded=0;entryX=0.5;entryY=1;entryDx=0;entryDy=0;exitX=0.75;exitY=0;exitDx=0;exitDy=0;" parent="1" source="QfhWJS6tFw1KnpFSSSw0-67" target="QfhWJS6tFw1KnpFSSSw0-66" edge="1">
          <mxGeometry relative="1" as="geometry">
            <mxPoint x="190" y="-202.5" as="sourcePoint" />
            <mxPoint x="350" y="-202.5" as="targetPoint" />
          </mxGeometry>
        </mxCell>
        <mxCell id="QfhWJS6tFw1KnpFSSSw0-79" value="&lt;font face=&quot;Lucida Console&quot;&gt;emergency_type&lt;/font&gt;" style="ellipse;whiteSpace=wrap;html=1;align=center;" parent="1" vertex="1">
          <mxGeometry x="100" y="-300" width="110" height="35" as="geometry" />
        </mxCell>
        <mxCell id="QfhWJS6tFw1KnpFSSSw0-81" value="&lt;div&gt;assigned_staff&lt;/div&gt;&lt;div&gt;_id&lt;/div&gt;" style="ellipse;whiteSpace=wrap;html=1;align=center;" parent="1" vertex="1">
          <mxGeometry x="10" y="-112.5" width="100" height="35" as="geometry" />
        </mxCell>
        <mxCell id="QfhWJS6tFw1KnpFSSSw0-82" value="&lt;div&gt;condition_on_&lt;/div&gt;&lt;div&gt;arrival&lt;/div&gt;" style="ellipse;whiteSpace=wrap;html=1;align=center;" parent="1" vertex="1">
          <mxGeometry x="55" y="-240" width="120" height="40" as="geometry" />
        </mxCell>
        <mxCell id="QfhWJS6tFw1KnpFSSSw0-83" value="" style="endArrow=none;html=1;rounded=0;entryX=0;entryY=0;entryDx=0;entryDy=0;exitX=0.58;exitY=1.086;exitDx=0;exitDy=0;exitPerimeter=0;" parent="1" source="QfhWJS6tFw1KnpFSSSw0-79" target="QfhWJS6tFw1KnpFSSSw0-67" edge="1">
          <mxGeometry relative="1" as="geometry">
            <mxPoint x="90" y="-70" as="sourcePoint" />
            <mxPoint x="250" y="-70" as="targetPoint" />
          </mxGeometry>
        </mxCell>
        <mxCell id="QfhWJS6tFw1KnpFSSSw0-84" value="" style="endArrow=none;html=1;rounded=0;entryX=0;entryY=0;entryDx=0;entryDy=0;exitX=0.65;exitY=0.988;exitDx=0;exitDy=0;exitPerimeter=0;" parent="1" source="QfhWJS6tFw1KnpFSSSw0-82" target="QfhWJS6tFw1KnpFSSSw0-67" edge="1">
          <mxGeometry relative="1" as="geometry">
            <mxPoint x="90" y="-70" as="sourcePoint" />
            <mxPoint x="250" y="-70" as="targetPoint" />
          </mxGeometry>
        </mxCell>
        <mxCell id="QfhWJS6tFw1KnpFSSSw0-85" value="" style="endArrow=none;html=1;rounded=0;entryX=0;entryY=0.25;entryDx=0;entryDy=0;exitX=1;exitY=0;exitDx=0;exitDy=0;" parent="1" source="QfhWJS6tFw1KnpFSSSw0-81" target="QfhWJS6tFw1KnpFSSSw0-67" edge="1">
          <mxGeometry relative="1" as="geometry">
            <mxPoint x="90" y="-70" as="sourcePoint" />
            <mxPoint x="250" y="-70" as="targetPoint" />
          </mxGeometry>
        </mxCell>
        <mxCell id="QfhWJS6tFw1KnpFSSSw0-89" style="edgeStyle=orthogonalEdgeStyle;rounded=0;orthogonalLoop=1;jettySize=auto;html=1;exitX=0.5;exitY=1;exitDx=0;exitDy=0;" parent="1" source="zORfP8hQOZwvnDJM3XV8-141" target="zORfP8hQOZwvnDJM3XV8-141" edge="1">
          <mxGeometry relative="1" as="geometry" />
        </mxCell>
        <mxCell id="QfhWJS6tFw1KnpFSSSw0-91" value="" style="endArrow=none;html=1;rounded=0;exitX=0.624;exitY=0.029;exitDx=0;exitDy=0;exitPerimeter=0;" parent="1" source="zORfP8hQOZwvnDJM3XV8-135" edge="1">
          <mxGeometry relative="1" as="geometry">
            <mxPoint x="-80" y="290" as="sourcePoint" />
            <mxPoint x="-50" y="260" as="targetPoint" />
          </mxGeometry>
        </mxCell>
        <mxCell id="QfhWJS6tFw1KnpFSSSw0-94" value="&lt;font face=&quot;Lucida Console&quot;&gt;Receives&lt;/font&gt;" style="shape=rhombus;perimeter=rhombusPerimeter;whiteSpace=wrap;html=1;align=center;" parent="1" vertex="1">
          <mxGeometry x="-110" y="202.5" width="120" height="60" as="geometry" />
        </mxCell>
        <mxCell id="QfhWJS6tFw1KnpFSSSw0-95" value="" style="endArrow=none;html=1;rounded=0;exitX=1;exitY=0;exitDx=0;exitDy=0;entryX=0.059;entryY=1;entryDx=0;entryDy=0;entryPerimeter=0;" parent="1" source="QfhWJS6tFw1KnpFSSSw0-94" target="QfhWJS6tFw1KnpFSSSw0-67" edge="1">
          <mxGeometry relative="1" as="geometry">
            <mxPoint x="-50" y="300" as="sourcePoint" />
            <mxPoint x="110" y="300" as="targetPoint" />
          </mxGeometry>
        </mxCell>
        <mxCell id="QfhWJS6tFw1KnpFSSSw0-97" value="" style="endArrow=none;html=1;rounded=0;entryX=1;entryY=0.5;entryDx=0;entryDy=0;exitX=0;exitY=0.5;exitDx=0;exitDy=0;" parent="1" source="QfhWJS6tFw1KnpFSSSw0-67" target="QfhWJS6tFw1KnpFSSSw0-75" edge="1">
          <mxGeometry relative="1" as="geometry">
            <mxPoint x="-50" y="230" as="sourcePoint" />
            <mxPoint x="110" y="230" as="targetPoint" />
          </mxGeometry>
        </mxCell>
        <mxCell id="QfhWJS6tFw1KnpFSSSw0-98" value="1" style="text;html=1;align=center;verticalAlign=middle;whiteSpace=wrap;rounded=0;container=1;" parent="1" vertex="1">
          <mxGeometry x="-130" y="280" width="60" height="30" as="geometry" />
        </mxCell>
        <mxCell id="QfhWJS6tFw1KnpFSSSw0-99" value="N" style="text;html=1;align=center;verticalAlign=middle;whiteSpace=wrap;rounded=0;" parent="1" vertex="1">
          <mxGeometry x="40" y="80" width="60" height="30" as="geometry" />
        </mxCell>
        <mxCell id="QfhWJS6tFw1KnpFSSSw0-100" value="" style="endArrow=none;html=1;rounded=0;entryX=1;entryY=0;entryDx=0;entryDy=0;" parent="1" source="zORfP8hQOZwvnDJM3XV8-11" target="zORfP8hQOZwvnDJM3XV8-13" edge="1">
          <mxGeometry relative="1" as="geometry">
            <mxPoint x="-380" y="300" as="sourcePoint" />
            <mxPoint x="-220" y="300" as="targetPoint" />
          </mxGeometry>
        </mxCell>
        <mxCell id="QfhWJS6tFw1KnpFSSSw0-102" value="" style="endArrow=none;html=1;rounded=0;entryX=1;entryY=1;entryDx=0;entryDy=0;" parent="1" target="QfhWJS6tFw1KnpFSSSw0-67" edge="1">
          <mxGeometry relative="1" as="geometry">
            <mxPoint x="790" y="20" as="sourcePoint" />
            <mxPoint x="350" y="80" as="targetPoint" />
          </mxGeometry>
        </mxCell>
        <mxCell id="QfhWJS6tFw1KnpFSSSw0-103" value="&lt;font face=&quot;Lucida Console&quot;&gt;Provided by&lt;/font&gt;" style="shape=rhombus;perimeter=rhombusPerimeter;whiteSpace=wrap;html=1;align=center;" parent="1" vertex="1">
          <mxGeometry x="770" y="-6.25" width="120" height="60" as="geometry" />
        </mxCell>
        <mxCell id="QfhWJS6tFw1KnpFSSSw0-104" value="" style="endArrow=none;html=1;rounded=0;entryX=0.5;entryY=1;entryDx=0;entryDy=0;exitX=1;exitY=0;exitDx=0;exitDy=0;" parent="1" source="zORfP8hQOZwvnDJM3XV8-66" target="QfhWJS6tFw1KnpFSSSw0-103" edge="1">
          <mxGeometry relative="1" as="geometry">
            <mxPoint x="385" y="664" as="sourcePoint" />
            <mxPoint x="725" y="47.5" as="targetPoint" />
          </mxGeometry>
        </mxCell>
        <mxCell id="QfhWJS6tFw1KnpFSSSw0-107" value="" style="endArrow=none;html=1;rounded=0;exitX=0.75;exitY=1;exitDx=0;exitDy=0;entryX=0.5;entryY=0;entryDx=0;entryDy=0;" parent="1" source="zORfP8hQOZwvnDJM3XV8-1" target="zORfP8hQOZwvnDJM3XV8-9" edge="1">
          <mxGeometry relative="1" as="geometry">
            <mxPoint x="190" y="300" as="sourcePoint" />
            <mxPoint x="350" y="300" as="targetPoint" />
          </mxGeometry>
        </mxCell>
        <mxCell id="QfhWJS6tFw1KnpFSSSw0-109" value="" style="endArrow=none;html=1;rounded=0;exitX=0.764;exitY=0.929;exitDx=0;exitDy=0;exitPerimeter=0;entryX=0;entryY=0.25;entryDx=0;entryDy=0;" parent="1" source="zORfP8hQOZwvnDJM3XV8-2" target="zORfP8hQOZwvnDJM3XV8-1" edge="1">
          <mxGeometry relative="1" as="geometry">
            <mxPoint x="190" y="300" as="sourcePoint" />
            <mxPoint x="350" y="300" as="targetPoint" />
          </mxGeometry>
        </mxCell>
        <mxCell id="QfhWJS6tFw1KnpFSSSw0-110" value="&lt;font face=&quot;Lucida Console&quot;&gt;N&lt;/font&gt;" style="text;strokeColor=none;fillColor=none;spacingLeft=4;spacingRight=4;overflow=hidden;rotatable=0;points=[[0,0.5],[1,0.5]];portConstraint=eastwest;fontSize=12;whiteSpace=wrap;html=1;" parent="1" vertex="1">
          <mxGeometry x="745" y="227.5" width="40" height="30" as="geometry" />
        </mxCell>
        <mxCell id="QfhWJS6tFw1KnpFSSSw0-111" value="&lt;font face=&quot;Lucida Console&quot;&gt;1&lt;/font&gt;" style="text;strokeColor=none;fillColor=none;spacingLeft=4;spacingRight=4;overflow=hidden;rotatable=0;points=[[0,0.5],[1,0.5]];portConstraint=eastwest;fontSize=12;whiteSpace=wrap;html=1;" parent="1" vertex="1">
          <mxGeometry x="660" y="-50" width="40" height="30" as="geometry" />
        </mxCell>
        <mxCell id="XNCEdTDbHWF3BR8xB2I4-8" value="&lt;font style=&quot;font-size: 12px;&quot; face=&quot;Lucida Console&quot;&gt;patient_id&lt;/font&gt;" style="ellipse;whiteSpace=wrap;html=1;align=center;fontStyle=4;" parent="1" vertex="1">
          <mxGeometry x="870" y="1170" width="80" height="35" as="geometry" />
        </mxCell>
        <mxCell id="XNCEdTDbHWF3BR8xB2I4-11" value="" style="endArrow=none;html=1;rounded=0;entryX=0.142;entryY=0.999;entryDx=0;entryDy=0;entryPerimeter=0;exitX=0.5;exitY=0;exitDx=0;exitDy=0;" parent="1" source="XNCEdTDbHWF3BR8xB2I4-8" target="zORfP8hQOZwvnDJM3XV8-47" edge="1">
          <mxGeometry relative="1" as="geometry">
            <mxPoint x="570" y="980" as="sourcePoint" />
            <mxPoint x="730" y="980" as="targetPoint" />
          </mxGeometry>
        </mxCell>
        <mxCell id="beunpveRRbCbQ7mTpUhz-1" value="name" style="ellipse;whiteSpace=wrap;html=1;align=center;" vertex="1" parent="1">
          <mxGeometry x="1740" y="357.5" width="100" height="40" as="geometry" />
        </mxCell>
        <mxCell id="beunpveRRbCbQ7mTpUhz-2" value="Equipment" style="whiteSpace=wrap;html=1;align=center;fontFamily=Lucida Console;fontSize=20;" vertex="1" parent="1">
          <mxGeometry x="1680" y="470" width="150" height="70" as="geometry" />
        </mxCell>
        <mxCell id="beunpveRRbCbQ7mTpUhz-3" value="" style="line;strokeWidth=1;rotatable=0;dashed=0;labelPosition=right;align=left;verticalAlign=middle;spacingTop=0;spacingLeft=6;points=[];portConstraint=eastwest;" vertex="1" parent="1">
          <mxGeometry x="1830" y="507.5" width="60" height="10" as="geometry" />
        </mxCell>
        <mxCell id="beunpveRRbCbQ7mTpUhz-4" value="&lt;u&gt;department_id&lt;/u&gt;" style="ellipse;whiteSpace=wrap;html=1;align=center;" vertex="1" parent="1">
          <mxGeometry x="1750" y="580" width="100" height="35" as="geometry" />
        </mxCell>
        <mxCell id="beunpveRRbCbQ7mTpUhz-5" value="" style="endArrow=none;html=1;rounded=0;" edge="1" parent="1">
          <mxGeometry width="50" height="50" relative="1" as="geometry">
            <mxPoint x="1830" y="472.5" as="sourcePoint" />
            <mxPoint x="1880" y="422.5" as="targetPoint" />
          </mxGeometry>
        </mxCell>
        <mxCell id="beunpveRRbCbQ7mTpUhz-6" value="type" style="ellipse;whiteSpace=wrap;html=1;align=center;" vertex="1" parent="1">
          <mxGeometry x="1840" y="385" width="100" height="35" as="geometry" />
        </mxCell>
        <mxCell id="beunpveRRbCbQ7mTpUhz-7" value="" style="endArrow=none;html=1;rounded=0;" edge="1" parent="1">
          <mxGeometry width="50" height="50" relative="1" as="geometry">
            <mxPoint x="1880" y="592.5" as="sourcePoint" />
            <mxPoint x="1830" y="542.5" as="targetPoint" />
          </mxGeometry>
        </mxCell>
        <mxCell id="beunpveRRbCbQ7mTpUhz-8" value="status" style="ellipse;whiteSpace=wrap;html=1;align=center;" vertex="1" parent="1">
          <mxGeometry x="1860" y="588.75" width="100" height="35" as="geometry" />
        </mxCell>
        <mxCell id="beunpveRRbCbQ7mTpUhz-9" value="equipment id" style="ellipse;whiteSpace=wrap;html=1;align=center;fontStyle=4;" vertex="1" parent="1">
          <mxGeometry x="1890" y="500" width="100" height="35" as="geometry" />
        </mxCell>
        <mxCell id="beunpveRRbCbQ7mTpUhz-10" value="" style="endArrow=none;html=1;rounded=0;entryX=0.5;entryY=1;entryDx=0;entryDy=0;exitX=0.75;exitY=0;exitDx=0;exitDy=0;" edge="1" parent="1" source="beunpveRRbCbQ7mTpUhz-2" target="beunpveRRbCbQ7mTpUhz-1">
          <mxGeometry relative="1" as="geometry">
            <mxPoint x="1640" y="427.5" as="sourcePoint" />
            <mxPoint x="1800" y="427.5" as="targetPoint" />
          </mxGeometry>
        </mxCell>
        <mxCell id="beunpveRRbCbQ7mTpUhz-11" value="&lt;font style=&quot;font-size: 20px;&quot;&gt;Supplies&lt;/font&gt;" style="rounded=0;whiteSpace=wrap;html=1;" vertex="1" parent="1">
          <mxGeometry x="1775" y="1077.5" width="210" height="60" as="geometry" />
        </mxCell>
        <mxCell id="beunpveRRbCbQ7mTpUhz-12" value="" style="endArrow=none;html=1;rounded=0;entryX=0.25;entryY=1;entryDx=0;entryDy=0;exitX=0.659;exitY=0.048;exitDx=0;exitDy=0;exitPerimeter=0;" edge="1" parent="1" source="beunpveRRbCbQ7mTpUhz-13">
          <mxGeometry width="50" height="50" relative="1" as="geometry">
            <mxPoint x="1765" y="1237.5" as="sourcePoint" />
            <mxPoint x="1810" y="1137.5" as="targetPoint" />
          </mxGeometry>
        </mxCell>
        <mxCell id="beunpveRRbCbQ7mTpUhz-13" value="&lt;font face=&quot;Lucida Console&quot;&gt;name&lt;/font&gt;" style="ellipse;whiteSpace=wrap;html=1;align=center;" vertex="1" parent="1">
          <mxGeometry x="1675" y="1227.5" width="100" height="40" as="geometry" />
        </mxCell>
        <mxCell id="beunpveRRbCbQ7mTpUhz-14" value="" style="endArrow=none;html=1;rounded=0;entryX=0.547;entryY=0.992;entryDx=0;entryDy=0;entryPerimeter=0;" edge="1" parent="1" source="beunpveRRbCbQ7mTpUhz-19" target="beunpveRRbCbQ7mTpUhz-11">
          <mxGeometry width="50" height="50" relative="1" as="geometry">
            <mxPoint x="1875" y="1247.5" as="sourcePoint" />
            <mxPoint x="1865" y="1137.5" as="targetPoint" />
          </mxGeometry>
        </mxCell>
        <mxCell id="beunpveRRbCbQ7mTpUhz-15" value="" style="endArrow=none;html=1;rounded=0;entryX=0.889;entryY=1;entryDx=0;entryDy=0;entryPerimeter=0;exitX=0.279;exitY=-0.026;exitDx=0;exitDy=0;exitPerimeter=0;" edge="1" parent="1" target="beunpveRRbCbQ7mTpUhz-11">
          <mxGeometry width="50" height="50" relative="1" as="geometry">
            <mxPoint x="1992.9" y="1246.46" as="sourcePoint" />
            <mxPoint x="1905" y="1357.5" as="targetPoint" />
          </mxGeometry>
        </mxCell>
        <mxCell id="beunpveRRbCbQ7mTpUhz-16" value="&lt;u&gt;&lt;font face=&quot;Lucida Console&quot;&gt;supply_id&lt;/font&gt;&lt;/u&gt;" style="ellipse;whiteSpace=wrap;html=1;align=center;" vertex="1" parent="1">
          <mxGeometry x="1585" y="1247.5" width="100" height="40" as="geometry" />
        </mxCell>
        <mxCell id="beunpveRRbCbQ7mTpUhz-17" value="" style="endArrow=none;html=1;rounded=0;entryX=0.07;entryY=1.012;entryDx=0;entryDy=0;entryPerimeter=0;exitX=1;exitY=0;exitDx=0;exitDy=0;" edge="1" parent="1" source="beunpveRRbCbQ7mTpUhz-16" target="beunpveRRbCbQ7mTpUhz-11">
          <mxGeometry width="50" height="50" relative="1" as="geometry">
            <mxPoint x="1855" y="1407.5" as="sourcePoint" />
            <mxPoint x="1905" y="1357.5" as="targetPoint" />
          </mxGeometry>
        </mxCell>
        <mxCell id="beunpveRRbCbQ7mTpUhz-18" value="" style="endArrow=none;html=1;rounded=0;entryX=1;entryY=1;entryDx=0;entryDy=0;" edge="1" parent="1" target="beunpveRRbCbQ7mTpUhz-11">
          <mxGeometry width="50" height="50" relative="1" as="geometry">
            <mxPoint x="2140.690877909563" y="1250.022853399032" as="sourcePoint" />
            <mxPoint x="1955" y="1287.5" as="targetPoint" />
          </mxGeometry>
        </mxCell>
        <mxCell id="beunpveRRbCbQ7mTpUhz-19" value="&lt;font face=&quot;Lucida Console&quot;&gt;type&lt;/font&gt;" style="ellipse;whiteSpace=wrap;html=1;align=center;" vertex="1" parent="1">
          <mxGeometry x="1845" y="1252.5" width="100" height="35" as="geometry" />
        </mxCell>
        <mxCell id="beunpveRRbCbQ7mTpUhz-20" value="&lt;font face=&quot;Lucida Console&quot;&gt;status&lt;/font&gt;" style="ellipse;whiteSpace=wrap;html=1;align=center;" vertex="1" parent="1">
          <mxGeometry x="1945" y="1247.5" width="100" height="35" as="geometry" />
        </mxCell>
        <mxCell id="beunpveRRbCbQ7mTpUhz-21" value="&lt;font face=&quot;Lucida Console&quot;&gt;supplier_info&lt;/font&gt;" style="ellipse;whiteSpace=wrap;html=1;align=center;" vertex="1" parent="1">
          <mxGeometry x="2095" y="1250" width="100" height="35" as="geometry" />
        </mxCell>
        <mxCell id="beunpveRRbCbQ7mTpUhz-22" value="" style="endArrow=none;html=1;rounded=0;entryX=0;entryY=0.5;entryDx=0;entryDy=0;" edge="1" parent="1" target="beunpveRRbCbQ7mTpUhz-23">
          <mxGeometry relative="1" as="geometry">
            <mxPoint x="1985" y="1107" as="sourcePoint" />
            <mxPoint x="2065" y="1107.5" as="targetPoint" />
          </mxGeometry>
        </mxCell>
        <mxCell id="beunpveRRbCbQ7mTpUhz-23" value="&lt;font face=&quot;Lucida Console&quot;&gt;&lt;u&gt;department_id&lt;/u&gt;&lt;/font&gt;" style="ellipse;whiteSpace=wrap;html=1;align=center;" vertex="1" parent="1">
          <mxGeometry x="2055" y="1090" width="100" height="35" as="geometry" />
        </mxCell>
        <mxCell id="beunpveRRbCbQ7mTpUhz-24" value="&lt;font face=&quot;Lucida Console&quot;&gt;purchase_date&lt;/font&gt;" style="ellipse;whiteSpace=wrap;html=1;align=center;" vertex="1" parent="1">
          <mxGeometry x="1665" y="977.5" width="100" height="35" as="geometry" />
        </mxCell>
        <mxCell id="beunpveRRbCbQ7mTpUhz-25" value="&lt;font face=&quot;Lucida Console&quot;&gt;last_updated&lt;/font&gt;" style="ellipse;whiteSpace=wrap;html=1;align=center;" vertex="1" parent="1">
          <mxGeometry x="1795" y="977.5" width="130" height="35" as="geometry" />
        </mxCell>
        <mxCell id="beunpveRRbCbQ7mTpUhz-26" value="expiry_date" style="ellipse;whiteSpace=wrap;html=1;align=center;" vertex="1" parent="1">
          <mxGeometry x="1935" y="962.5" width="130" height="35" as="geometry" />
        </mxCell>
        <mxCell id="beunpveRRbCbQ7mTpUhz-27" value="notes" style="ellipse;whiteSpace=wrap;html=1;align=center;" vertex="1" parent="1">
          <mxGeometry x="1595" y="1097.5" width="100" height="35" as="geometry" />
        </mxCell>
        <mxCell id="beunpveRRbCbQ7mTpUhz-28" value="" style="endArrow=none;html=1;rounded=0;entryX=1;entryY=0.5;entryDx=0;entryDy=0;exitX=0;exitY=0.5;exitDx=0;exitDy=0;" edge="1" parent="1" source="beunpveRRbCbQ7mTpUhz-11" target="beunpveRRbCbQ7mTpUhz-27">
          <mxGeometry relative="1" as="geometry">
            <mxPoint x="1855" y="1013.5" as="sourcePoint" />
            <mxPoint x="1695" y="1013.5" as="targetPoint" />
          </mxGeometry>
        </mxCell>
        <mxCell id="beunpveRRbCbQ7mTpUhz-29" value="" style="endArrow=none;html=1;rounded=0;entryX=0.615;entryY=0.986;entryDx=0;entryDy=0;exitX=0;exitY=0;exitDx=0;exitDy=0;entryPerimeter=0;" edge="1" parent="1" source="beunpveRRbCbQ7mTpUhz-11" target="beunpveRRbCbQ7mTpUhz-24">
          <mxGeometry relative="1" as="geometry">
            <mxPoint x="1839" y="1155.5" as="sourcePoint" />
            <mxPoint x="1835" y="1037.5" as="targetPoint" />
          </mxGeometry>
        </mxCell>
        <mxCell id="beunpveRRbCbQ7mTpUhz-30" value="" style="endArrow=none;html=1;rounded=0;entryX=0.5;entryY=1;entryDx=0;entryDy=0;exitX=0.905;exitY=0;exitDx=0;exitDy=0;exitPerimeter=0;" edge="1" parent="1" source="beunpveRRbCbQ7mTpUhz-11" target="beunpveRRbCbQ7mTpUhz-26">
          <mxGeometry relative="1" as="geometry">
            <mxPoint x="2029" y="1145.5" as="sourcePoint" />
            <mxPoint x="2025" y="1027.5" as="targetPoint" />
          </mxGeometry>
        </mxCell>
        <mxCell id="beunpveRRbCbQ7mTpUhz-31" value="" style="endArrow=none;html=1;rounded=0;exitX=0.36;exitY=-0.025;exitDx=0;exitDy=0;exitPerimeter=0;entryX=0.5;entryY=1;entryDx=0;entryDy=0;" edge="1" parent="1" source="beunpveRRbCbQ7mTpUhz-11" target="beunpveRRbCbQ7mTpUhz-25">
          <mxGeometry relative="1" as="geometry">
            <mxPoint x="2189" y="1145.5" as="sourcePoint" />
            <mxPoint x="2175" y="1057.5" as="targetPoint" />
          </mxGeometry>
        </mxCell>
        <mxCell id="beunpveRRbCbQ7mTpUhz-32" value="&lt;font face=&quot;Lucida Console&quot;&gt;purchase_date&lt;/font&gt;" style="ellipse;whiteSpace=wrap;html=1;align=center;" vertex="1" parent="1">
          <mxGeometry x="1630" y="350" width="100" height="35" as="geometry" />
        </mxCell>
        <mxCell id="beunpveRRbCbQ7mTpUhz-33" value="&lt;font face=&quot;Lucida Console&quot;&gt;last_maintenance&lt;/font&gt;" style="ellipse;whiteSpace=wrap;html=1;align=center;" vertex="1" parent="1">
          <mxGeometry x="1620" y="647.5" width="130" height="35" as="geometry" />
        </mxCell>
        <mxCell id="beunpveRRbCbQ7mTpUhz-34" value="notes" style="ellipse;whiteSpace=wrap;html=1;align=center;" vertex="1" parent="1">
          <mxGeometry x="1480" y="553.75" width="100" height="35" as="geometry" />
        </mxCell>
        <mxCell id="beunpveRRbCbQ7mTpUhz-35" value="next_maintenance" style="ellipse;whiteSpace=wrap;html=1;align=center;" vertex="1" parent="1">
          <mxGeometry x="1570" y="410" width="100" height="40" as="geometry" />
        </mxCell>
        <mxCell id="beunpveRRbCbQ7mTpUhz-36" value="" style="endArrow=none;html=1;rounded=0;entryX=0.393;entryY=0;entryDx=0;entryDy=0;entryPerimeter=0;exitX=0.58;exitY=1.086;exitDx=0;exitDy=0;exitPerimeter=0;" edge="1" parent="1" source="beunpveRRbCbQ7mTpUhz-32" target="beunpveRRbCbQ7mTpUhz-2">
          <mxGeometry relative="1" as="geometry">
            <mxPoint x="1540" y="560" as="sourcePoint" />
            <mxPoint x="1700" y="560" as="targetPoint" />
          </mxGeometry>
        </mxCell>
        <mxCell id="beunpveRRbCbQ7mTpUhz-37" value="" style="endArrow=none;html=1;rounded=0;entryX=0;entryY=0;entryDx=0;entryDy=0;exitX=0.65;exitY=0.988;exitDx=0;exitDy=0;exitPerimeter=0;" edge="1" parent="1" source="beunpveRRbCbQ7mTpUhz-35" target="beunpveRRbCbQ7mTpUhz-2">
          <mxGeometry relative="1" as="geometry">
            <mxPoint x="1540" y="560" as="sourcePoint" />
            <mxPoint x="1700" y="560" as="targetPoint" />
          </mxGeometry>
        </mxCell>
        <mxCell id="beunpveRRbCbQ7mTpUhz-38" value="" style="endArrow=none;html=1;rounded=0;entryX=-0.013;entryY=0.857;entryDx=0;entryDy=0;entryPerimeter=0;exitX=1;exitY=0;exitDx=0;exitDy=0;" edge="1" parent="1" source="beunpveRRbCbQ7mTpUhz-34" target="beunpveRRbCbQ7mTpUhz-2">
          <mxGeometry relative="1" as="geometry">
            <mxPoint x="1540" y="560" as="sourcePoint" />
            <mxPoint x="1700" y="560" as="targetPoint" />
          </mxGeometry>
        </mxCell>
        <mxCell id="beunpveRRbCbQ7mTpUhz-39" value="" style="endArrow=none;html=1;rounded=0;entryX=0.25;entryY=1;entryDx=0;entryDy=0;exitX=0.5;exitY=0;exitDx=0;exitDy=0;" edge="1" parent="1" source="beunpveRRbCbQ7mTpUhz-33" target="beunpveRRbCbQ7mTpUhz-2">
          <mxGeometry relative="1" as="geometry">
            <mxPoint x="1540" y="560" as="sourcePoint" />
            <mxPoint x="1700" y="560" as="targetPoint" />
          </mxGeometry>
        </mxCell>
        <mxCell id="beunpveRRbCbQ7mTpUhz-40" value="" style="endArrow=none;html=1;rounded=0;entryX=0.5;entryY=1;entryDx=0;entryDy=0;" edge="1" parent="1" target="beunpveRRbCbQ7mTpUhz-2">
          <mxGeometry relative="1" as="geometry">
            <mxPoint x="1790" y="585" as="sourcePoint" />
            <mxPoint x="1750" y="380" as="targetPoint" />
          </mxGeometry>
        </mxCell>
        <mxCell id="beunpveRRbCbQ7mTpUhz-41" value="&lt;font face=&quot;Lucida Console&quot;&gt;has&lt;/font&gt;" style="shape=rhombus;perimeter=rhombusPerimeter;whiteSpace=wrap;html=1;align=center;" vertex="1" parent="1">
          <mxGeometry x="1410" y="685" width="120" height="60" as="geometry" />
        </mxCell>
        <mxCell id="beunpveRRbCbQ7mTpUhz-42" value="" style="endArrow=none;html=1;rounded=0;exitX=1;exitY=0.5;exitDx=0;exitDy=0;entryX=0.25;entryY=1;entryDx=0;entryDy=0;" edge="1" parent="1" source="beunpveRRbCbQ7mTpUhz-41" target="beunpveRRbCbQ7mTpUhz-2">
          <mxGeometry relative="1" as="geometry">
            <mxPoint x="1620" y="720" as="sourcePoint" />
            <mxPoint x="1795" y="1020" as="targetPoint" />
          </mxGeometry>
        </mxCell>
        <mxCell id="beunpveRRbCbQ7mTpUhz-43" value="&lt;font face=&quot;Lucida Console&quot;&gt;has&lt;/font&gt;" style="shape=rhombus;perimeter=rhombusPerimeter;whiteSpace=wrap;html=1;align=center;" vertex="1" parent="1">
          <mxGeometry x="1480" y="977.5" width="120" height="60" as="geometry" />
        </mxCell>
        <mxCell id="beunpveRRbCbQ7mTpUhz-44" value="" style="endArrow=none;html=1;rounded=0;entryX=1;entryY=0.5;entryDx=0;entryDy=0;" edge="1" parent="1" target="beunpveRRbCbQ7mTpUhz-43">
          <mxGeometry relative="1" as="geometry">
            <mxPoint x="1770" y="1080" as="sourcePoint" />
            <mxPoint x="1590" y="1010" as="targetPoint" />
          </mxGeometry>
        </mxCell>
        <mxCell id="beunpveRRbCbQ7mTpUhz-45" value="N" style="text;html=1;align=center;verticalAlign=middle;whiteSpace=wrap;rounded=0;" vertex="1" parent="1">
          <mxGeometry x="1310" y="710" width="60" height="30" as="geometry" />
        </mxCell>
        <mxCell id="beunpveRRbCbQ7mTpUhz-46" value="M" style="text;html=1;align=center;verticalAlign=middle;whiteSpace=wrap;rounded=0;" vertex="1" parent="1">
          <mxGeometry x="1640" y="1040" width="60" height="30" as="geometry" />
        </mxCell>
        <mxCell id="beunpveRRbCbQ7mTpUhz-47" value="" style="endArrow=none;html=1;rounded=0;exitX=1;exitY=0.75;exitDx=0;exitDy=0;entryX=0;entryY=0.5;entryDx=0;entryDy=0;" edge="1" parent="1" source="zORfP8hQOZwvnDJM3XV8-196" target="beunpveRRbCbQ7mTpUhz-41">
          <mxGeometry relative="1" as="geometry">
            <mxPoint x="1550" y="860" as="sourcePoint" />
            <mxPoint x="1710" y="860" as="targetPoint" />
          </mxGeometry>
        </mxCell>
        <mxCell id="beunpveRRbCbQ7mTpUhz-48" value="" style="endArrow=none;html=1;rounded=0;exitX=1;exitY=1;exitDx=0;exitDy=0;entryX=0;entryY=0.5;entryDx=0;entryDy=0;" edge="1" parent="1" source="zORfP8hQOZwvnDJM3XV8-196" target="beunpveRRbCbQ7mTpUhz-43">
          <mxGeometry relative="1" as="geometry">
            <mxPoint x="1550" y="860" as="sourcePoint" />
            <mxPoint x="1710" y="860" as="targetPoint" />
          </mxGeometry>
        </mxCell>
        <mxCell id="beunpveRRbCbQ7mTpUhz-49" value="M" style="text;html=1;align=center;verticalAlign=middle;whiteSpace=wrap;rounded=0;" vertex="1" parent="1">
          <mxGeometry x="1540" y="627.5" width="60" height="30" as="geometry" />
        </mxCell>
        <mxCell id="beunpveRRbCbQ7mTpUhz-50" value="N" style="text;html=1;align=center;verticalAlign=middle;whiteSpace=wrap;rounded=0;" vertex="1" parent="1">
          <mxGeometry x="1390" y="930" width="60" height="30" as="geometry" />
        </mxCell>
      </root>
    </mxGraphModel>
  </diagram>
</mxfile>
